<svg width="119" height="31" viewBox="0 0 119 31" fill="none" xmlns="http://www.w3.org/2000/svg">
<g clip-path="url(#clip0_202_504)">
<path d="M37.333 22.9187C36.3849 22.9337 35.4423 22.7721 34.5534 22.4422C33.7598 22.143 33.0463 21.6641 32.4688 21.043C31.8786 20.3921 31.432 19.6242 31.1581 18.7893C30.8384 17.8022 30.6843 16.7691 30.7018 15.7318C30.6827 14.6883 30.8611 13.6505 31.2277 12.6733C31.5492 11.8323 32.0389 11.0657 32.667 10.4206C33.2738 9.80632 34.005 9.32892 34.8115 9.02038C35.6544 8.69843 36.5501 8.5368 37.4524 8.54383C37.9714 8.53989 38.4897 8.58309 39.0009 8.67288C39.4097 8.74605 39.8141 8.84206 40.2121 8.96044C40.5064 9.04672 40.7922 9.15999 41.0656 9.2988C41.2907 9.41769 41.4496 9.50372 41.5422 9.55689L40.8076 11.6013C40.3798 11.3562 39.9228 11.166 39.4475 11.0353C38.8254 10.8527 38.1799 10.7626 37.5316 10.7681C36.9611 10.7634 36.3949 10.8679 35.8637 11.076C35.3525 11.2775 34.8941 11.5931 34.5234 11.9986C34.1242 12.4475 33.8232 12.975 33.6399 13.5472C33.4166 14.2464 33.3093 14.9775 33.3224 15.7115C33.3158 16.3881 33.3994 17.0626 33.5708 17.7173C33.7178 18.289 33.9776 18.8255 34.3349 19.2953C34.6813 19.7408 35.131 20.0952 35.6452 20.3277C36.2464 20.5871 36.8969 20.7126 37.5514 20.6955C38.2823 20.716 39.012 20.6256 39.7157 20.4272C40.1587 20.2933 40.5902 20.124 41.0062 19.9212L41.6814 21.9656C41.4782 22.0942 41.2619 22.2008 41.0362 22.2837C40.7208 22.4034 40.3992 22.5061 40.0729 22.5915C39.6617 22.6984 39.2438 22.7779 38.8221 22.8293C38.3281 22.891 37.8307 22.9208 37.333 22.9187V22.9187Z" fill="#118ACB"/>
<path d="M47.2203 11.9792C47.9009 11.9612 48.5795 12.062 49.2256 12.2769C49.7205 12.4446 50.167 12.7306 50.5262 13.1101C50.858 13.4822 51.0963 13.9281 51.2212 14.4108C51.3648 14.9582 51.4348 15.5224 51.4295 16.0884V22.3832C51.0587 22.4624 50.4995 22.5583 49.7519 22.6707C48.9134 22.7891 48.0672 22.8454 47.2203 22.8394C46.6462 22.8444 46.0734 22.7844 45.5127 22.6606C45.0381 22.56 44.5889 22.3639 44.1923 22.0844C43.826 21.817 43.5325 21.4621 43.3388 21.0521C43.1192 20.5594 43.0139 20.0234 43.0309 19.4842C43.0139 18.9596 43.1337 18.4396 43.3784 17.9753C43.6061 17.569 43.9299 17.2247 44.3213 16.9724C44.7435 16.7043 45.2112 16.5159 45.7012 16.4166C46.2398 16.3023 46.7891 16.2458 47.3397 16.2479C47.6183 16.2486 47.8967 16.2652 48.1734 16.2977C48.4878 16.3342 48.7995 16.3905 49.1067 16.4664V16.069C49.1078 15.801 49.0743 15.5339 49.0071 15.2745C48.944 15.0291 48.8251 14.8017 48.6596 14.6099C48.4815 14.4092 48.2566 14.2556 48.0047 14.1628C47.6764 14.0479 47.3298 13.9942 46.982 14.0043C46.47 14.0008 45.9586 14.0406 45.4533 14.1232C45.0687 14.1828 44.6899 14.2756 44.3213 14.4006L44.0236 12.4558C44.4587 12.3172 44.9035 12.2109 45.3542 12.1377C45.9702 12.0291 46.5948 11.9761 47.2203 11.9792V11.9792ZM47.419 20.9332C47.984 20.9469 48.5491 20.9071 49.1067 20.8143V18.1541C48.9175 18.1016 48.725 18.0615 48.5306 18.0342C48.2546 17.993 47.9759 17.9733 47.6969 17.9753C47.4277 17.9754 47.1589 17.9951 46.8926 18.0342C46.638 18.069 46.3902 18.1427 46.158 18.2527C45.9465 18.353 45.7652 18.5072 45.6321 18.6998C45.493 18.9151 45.4236 19.1681 45.4335 19.4242C45.4335 19.9933 45.6121 20.3872 45.9695 20.606C46.3266 20.8244 46.8098 20.9335 47.4189 20.9332H47.419Z" fill="#118ACB"/>
<path d="M55.7374 16.2876C56.0418 15.9696 56.3661 15.6285 56.7104 15.2644C57.0543 14.9006 57.3918 14.5369 57.7229 14.1731C58.0537 13.8093 58.368 13.4584 58.6659 13.1204C58.9636 12.783 59.2185 12.4887 59.4305 12.2374H62.2695C61.609 12.9781 60.9123 13.7456 60.1794 14.5399C59.4467 15.3345 58.7106 16.1088 57.9708 16.8627C58.4118 17.2367 58.8288 17.6382 59.2191 18.0648C59.655 18.5342 60.0776 19.0338 60.4867 19.5636C60.8967 20.0929 61.2798 20.6223 61.636 21.1517C61.9589 21.6254 62.2565 22.1159 62.5276 22.621H59.748C59.5097 22.2105 59.235 21.7804 58.9239 21.3306C58.613 20.8804 58.2789 20.4435 57.9216 20.0198C57.5639 19.5971 57.1998 19.1967 56.8292 18.8187C56.4907 18.4699 56.1257 18.1479 55.7374 17.8555V22.621H53.3348V7.61105L55.7374 7.21375V16.2876Z" fill="#118ACB"/>
<path d="M70.1916 14.4007C69.9209 14.3164 69.6459 14.2469 69.3676 14.1924C68.9653 14.1154 68.5563 14.0789 68.1467 14.0837C67.8637 14.0854 67.5813 14.1119 67.3028 14.163C67.0916 14.1961 66.8828 14.2426 66.6774 14.3022V22.6211H64.2748V12.7333C64.8423 12.5319 65.4228 12.3693 66.0124 12.2466C66.7729 12.0884 67.5483 12.0121 68.3251 12.019C68.4841 12.019 68.6695 12.0281 68.8814 12.0485C69.0927 12.0688 69.3044 12.0952 69.5164 12.1277C69.7283 12.1612 69.9336 12.2009 70.1322 12.2466C70.3309 12.2933 70.4894 12.336 70.6088 12.3756L70.1916 14.4007Z" fill="#118ACB"/>
<path d="M75.3328 11.9792C76.0134 11.9612 76.692 12.062 77.3381 12.2769C77.8331 12.4445 78.2796 12.7305 78.6387 13.1101C78.9705 13.4822 79.2088 13.9281 79.3337 14.4108C79.4775 14.9582 79.5476 15.5224 79.542 16.0884V22.3832C79.1711 22.4624 78.6119 22.5583 77.8644 22.6707C77.0258 22.7891 76.1797 22.8454 75.3328 22.8394C74.7587 22.8444 74.1858 22.7844 73.6252 22.6606C73.1506 22.56 72.7013 22.3639 72.3048 22.0844C71.9385 21.817 71.645 21.4621 71.4512 21.0521C71.2317 20.5594 71.1264 20.0234 71.1434 19.4842C71.1264 18.9596 71.2462 18.4396 71.4909 17.9753C71.7186 17.569 72.0424 17.2247 72.4338 16.9724C72.8559 16.7043 73.3236 16.5159 73.8137 16.4166C74.3523 16.3023 74.9016 16.2458 75.4522 16.2479C75.7308 16.2486 76.0092 16.2652 76.2859 16.2977C76.6002 16.3342 76.912 16.3905 77.2192 16.4664V16.069C77.2203 15.801 77.1868 15.5339 77.1196 15.2745C77.0565 15.0291 76.9376 14.8017 76.7721 14.6099C76.594 14.4092 76.3691 14.2556 76.1172 14.1628C75.7889 14.0479 75.4422 13.9942 75.0945 14.0043C74.5825 14.0008 74.0711 14.0406 73.5658 14.1232C73.1811 14.1828 72.8024 14.2756 72.4338 14.4006L72.1361 12.4558C72.5712 12.3172 73.016 12.2109 73.4667 12.1377C74.0827 12.0291 74.7073 11.9761 75.3328 11.9792V11.9792ZM75.5314 20.9332C76.0965 20.9469 76.6616 20.9071 77.2192 20.8143V18.1541C77.03 18.1016 76.8375 18.0615 76.6431 18.0342C76.3671 17.993 76.0884 17.9733 75.8093 17.9753C75.5402 17.9754 75.2714 17.9951 75.0051 18.0342C74.7505 18.069 74.5027 18.1427 74.2704 18.2527C74.059 18.353 73.8777 18.5072 73.7446 18.6998C73.6055 18.9151 73.5361 19.1681 73.546 19.4242C73.546 19.9933 73.7246 20.3872 74.082 20.606C74.4391 20.8244 74.9223 20.9335 75.5314 20.9332V20.9332Z" fill="#118ACB"/>
<path d="M91.2556 22.303C89.9325 22.6831 88.5628 22.877 87.1861 22.8791C86.4345 22.8911 85.6871 22.7632 84.9822 22.5021C84.3574 22.2662 83.7915 21.8969 83.3239 21.42C82.8559 20.9317 82.497 20.3495 82.2712 19.7119C82.0173 18.9885 81.8931 18.2258 81.9044 17.4592C81.8952 16.7032 81.999 15.9501 82.2123 15.2248C82.3957 14.5978 82.7028 14.0139 83.1156 13.5075C83.5082 13.0346 84.0038 12.6578 84.5646 12.4061C85.1846 12.1376 85.8552 12.0056 86.5307 12.0189C86.9806 12.0113 87.429 12.0715 87.8608 12.1978C88.2029 12.2999 88.5352 12.4325 88.8536 12.5941V7.61105L91.2556 7.21375V22.303ZM84.3664 17.3992C84.3664 18.458 84.6177 19.2885 85.1204 19.8907C85.6234 20.4933 86.3184 20.7944 87.2054 20.7941C87.5337 20.7972 87.8618 20.7806 88.188 20.7443C88.4116 20.7195 88.6337 20.6832 88.8536 20.6355V14.6791C88.5902 14.5086 88.3065 14.3718 88.0092 14.2717C87.6489 14.1448 87.2694 14.0813 86.8874 14.0837C86.0146 14.0837 85.3761 14.3814 84.972 14.9768C84.5676 15.5723 84.3658 16.3797 84.3664 17.3992V17.3992Z" fill="#4BBE9E"/>
<path d="M97.0171 11.9792C97.6975 11.9613 98.3759 12.062 99.0218 12.2769C99.5168 12.4445 99.9633 12.7305 100.322 13.1101C100.654 13.4822 100.893 13.9281 101.017 14.4108C101.161 14.9582 101.231 15.5224 101.226 16.0884V22.3832C100.855 22.4624 100.296 22.5583 99.5482 22.6707C98.7098 22.789 97.8638 22.8454 97.0171 22.8394C96.4428 22.8444 95.8698 22.7844 95.309 22.6606C94.8345 22.56 94.3854 22.364 93.989 22.0844C93.6222 21.8174 93.3283 21.4624 93.1345 21.0521C92.9153 20.5593 92.8104 20.0233 92.8276 19.4842C92.8102 18.9595 92.93 18.4394 93.1751 17.9753C93.4024 17.5687 93.7263 17.2243 94.1181 16.9724C94.5401 16.7041 95.0078 16.5157 95.498 16.4166C96.0364 16.3023 96.5855 16.2457 97.1359 16.2479C97.4144 16.2485 97.6926 16.2652 97.9692 16.2977C98.2837 16.3342 98.5956 16.3905 98.903 16.4663V16.069C98.9041 15.801 98.8706 15.5339 98.8034 15.2744C98.7403 15.0291 98.6214 14.8017 98.4559 14.6099C98.2777 14.409 98.0525 14.2554 97.8005 14.1628C97.4723 14.0478 97.1258 13.9941 96.7783 14.0043C96.2661 14.0008 95.7545 14.0406 95.249 14.1232C94.8647 14.1827 94.4863 14.2755 94.1181 14.4006L93.8204 12.4558C94.2553 12.3171 94.6999 12.2108 95.1505 12.1377C95.7667 12.0291 96.3914 11.976 97.0171 11.9792ZM97.2152 20.9332C97.7803 20.9468 98.3454 20.907 98.903 20.8143V18.1541C98.7137 18.1017 98.5213 18.0616 98.3268 18.0342C98.0507 17.9929 97.7718 17.9732 97.4926 17.9753C97.2236 17.9754 96.955 17.9951 96.6888 18.0342C96.4342 18.069 96.1865 18.1427 95.9542 18.2527C95.7426 18.353 95.5611 18.5072 95.4279 18.6998C95.2891 18.9152 95.22 19.1681 95.2297 19.4242C95.2297 19.9933 95.4085 20.3872 95.7662 20.606C96.1229 20.8244 96.6059 20.9335 97.2152 20.9332Z" fill="#4BBE9E"/>
<path d="M102.917 9.49691L105.32 9.09961V12.2374H109.012V14.2421H105.32V18.4712C105.32 19.3054 105.452 19.9012 105.716 20.2585C105.981 20.6152 106.431 20.7937 107.067 20.794C107.458 20.7997 107.849 20.7533 108.228 20.6558C108.501 20.5842 108.769 20.498 109.033 20.3977L109.429 22.3029C109.074 22.4489 108.709 22.5718 108.338 22.6708C107.819 22.8048 107.285 22.8681 106.75 22.8587C106.117 22.8775 105.488 22.7765 104.893 22.561C104.428 22.3864 104.019 22.0877 103.711 21.6973C103.407 21.2922 103.196 20.8243 103.096 20.3276C102.97 19.7239 102.91 19.1082 102.917 18.4915L102.917 9.49691Z" fill="#4BBE9E"/>
<path d="M114.791 11.9792C115.471 11.9613 116.15 12.062 116.796 12.2769C117.291 12.4445 117.737 12.7305 118.096 13.1101C118.428 13.4822 118.666 13.9281 118.791 14.4108C118.935 14.9582 119.005 15.5224 119 16.0884V22.3832C118.629 22.4624 118.07 22.5583 117.322 22.6707C116.484 22.789 115.638 22.8454 114.791 22.8394C114.217 22.8444 113.644 22.7844 113.083 22.6606C112.608 22.56 112.159 22.364 111.763 22.0844C111.396 21.8174 111.102 21.4624 110.908 21.0521C110.689 20.5593 110.584 20.0233 110.602 19.4842C110.584 18.9595 110.704 18.4394 110.949 17.9753C111.176 17.5687 111.5 17.2243 111.892 16.9724C112.314 16.7041 112.782 16.5157 113.272 16.4166C113.81 16.3023 114.359 16.2457 114.91 16.2479C115.188 16.2485 115.467 16.2652 115.743 16.2977C116.058 16.3342 116.369 16.3905 116.677 16.4663V16.069C116.678 15.801 116.645 15.5339 116.577 15.2744C116.514 15.0291 116.395 14.8017 116.23 14.6099C116.052 14.409 115.826 14.2554 115.574 14.1628C115.246 14.0478 114.9 13.9941 114.552 14.0043C114.04 14.0008 113.528 14.0406 113.023 14.1232C112.639 14.1827 112.26 14.2755 111.892 14.4006L111.594 12.4558C112.029 12.3171 112.474 12.2108 112.924 12.1377C113.541 12.0291 114.165 11.976 114.791 11.9792V11.9792ZM114.989 20.9332C115.554 20.9468 116.119 20.907 116.677 20.8143V18.1541C116.488 18.1017 116.295 18.0616 116.101 18.0342C115.825 17.9929 115.546 17.9732 115.267 17.9753C114.998 17.9754 114.729 17.9951 114.463 18.0342C114.208 18.069 113.96 18.1427 113.728 18.2527C113.517 18.353 113.335 18.5072 113.202 18.6998C113.063 18.9152 112.994 19.1681 113.004 19.4242C113.004 19.9933 113.182 20.3872 113.54 20.606C113.897 20.8244 114.38 20.9335 114.989 20.9332V20.9332Z" fill="#4BBE9E"/>
<path fill-rule="evenodd" clip-rule="evenodd" d="M26.5086 23.8743C26.4019 23.7986 26.271 23.7648 26.1409 23.7793C26.0108 23.7937 25.8906 23.8555 25.8031 23.9529C25.7618 23.9988 25.7304 24.0337 25.7198 24.0464C25.4683 24.3459 25.2047 24.6338 24.929 24.9102C23.2758 26.5642 21.2178 27.7558 18.9603 28.3661C18.8908 28.3846 18.822 28.4049 18.7519 28.4223C18.6621 28.445 18.5708 28.4641 18.4803 28.485C18.3326 28.5186 18.1851 28.5525 18.0354 28.5812C18.007 28.5867 17.978 28.5912 17.9494 28.5965C17.745 28.6344 17.5391 28.6691 17.3309 28.6978L17.331 28.6982C16.712 28.7857 16.0877 28.83 15.4625 28.8309C12.6828 28.8359 9.9711 27.9713 7.70733 26.3581C7.50116 26.1722 7.36891 25.9183 7.33485 25.6428C7.30078 25.3673 7.36718 25.0888 7.52186 24.8583C7.67655 24.6278 7.90915 24.4608 8.177 24.3879C8.44484 24.3151 8.72998 24.3412 8.98011 24.4616C10.864 25.8157 13.1263 26.5425 15.4464 26.5391C16.306 26.5399 17.1628 26.4422 18.0002 26.248C20.0104 25.7753 21.8487 24.7506 23.3078 23.2892C23.4727 23.1244 23.6307 22.9552 23.7819 22.7818C23.8383 22.7169 23.8805 22.6411 23.9058 22.559C23.9312 22.477 23.9392 22.3905 23.9292 22.3052C23.9193 22.2199 23.8917 22.1376 23.8481 22.0636C23.8046 21.9895 23.7461 21.9254 23.6763 21.8753L23.0158 21.3997C22.8918 21.3108 22.7392 21.271 22.5876 21.2879C22.4359 21.3049 22.2959 21.3774 22.1945 21.4914C22.0868 21.6115 21.9759 21.7281 21.8618 21.8413C21.4177 22.2816 20.9294 22.6749 20.4045 23.015L20.4044 23.015C20.1575 23.0668 19.9005 23.0361 19.6727 22.9278C19.4449 22.8195 19.2588 22.6395 19.1431 22.4153C19.0274 22.1912 18.9883 21.9353 19.0319 21.6869C19.0755 21.4384 19.1994 21.2111 19.3845 21.0397L17.2722 22.1676C17.4637 22.1251 17.6628 22.1317 17.851 22.1868C18.0391 22.2419 18.2103 22.3437 18.3486 22.4828C18.4869 22.6219 18.5877 22.7937 18.6417 22.9822C18.6957 23.1707 18.7012 23.3698 18.6576 23.561C18.6132 23.6766 18.5464 23.7822 18.461 23.8718C18.3756 23.9613 18.2732 24.033 18.1599 24.0828C17.5141 24.301 16.8415 24.4298 16.1607 24.4656C14.3164 24.6087 12.4726 24.1832 10.8775 23.2464C9.28248 22.3096 8.01279 20.9065 7.23947 19.2261C6.46616 17.5457 6.22636 15.6686 6.55236 13.8478C6.87837 12.0269 7.75453 10.3497 9.06285 9.04193C9.35259 8.75242 9.66142 8.48266 9.98725 8.23447C9.98725 8.23447 11.4815 7.14347 13.1097 6.70087C13.877 6.49512 14.6681 6.39131 15.4625 6.39213C16.8384 6.39213 17.9453 6.61127 19.1132 7.16059C19.2141 7.20816 19.2995 7.28332 19.3595 7.37737C19.4195 7.47143 19.4516 7.58054 19.4522 7.69209C19.4729 7.88633 19.4441 8.08265 19.3684 8.26273C19.2927 8.4428 19.1726 8.60077 19.0194 8.72187C18.8661 8.84298 18.6847 8.92328 18.492 8.95528C18.2993 8.98727 18.1016 8.96992 17.9174 8.90484L19.8976 10.2511C19.7337 10.0587 19.6371 9.81801 19.6226 9.56565C19.608 9.31329 19.6764 9.0631 19.8172 8.85317C19.958 8.64323 20.1635 8.48506 20.4025 8.40272C20.6415 8.32038 20.9008 8.31839 21.1411 8.39706L21.1412 8.39711C21.3926 8.59916 21.6332 8.8144 21.8618 9.04192C21.9773 9.15775 22.0896 9.2765 22.1987 9.39818C22.2999 9.51209 22.4397 9.58454 22.5911 9.60158C22.7426 9.61861 22.8949 9.57904 23.0189 9.49047L23.68 9.01645C23.6814 9.01826 23.6827 9.02014 23.6841 9.02193C23.755 8.97471 23.8149 8.91297 23.8601 8.84079C23.9052 8.76861 23.9345 8.68764 23.946 8.60328C23.9574 8.51891 23.9508 8.43308 23.9265 8.35147C23.9022 8.26987 23.8609 8.19436 23.8052 8.12997C23.6466 7.94751 23.4808 7.7695 23.3078 7.59595C21.5784 5.86155 19.322 4.75058 16.8929 4.43749C16.8551 4.43155 16.6271 4.40609 16.6271 4.40609C16.3683 4.33448 16.1423 4.17547 15.9875 3.95607C15.8327 3.73668 15.7586 3.47043 15.7779 3.20261C15.7972 2.93478 15.9086 2.68189 16.0932 2.48691C16.2778 2.29194 16.5243 2.16692 16.7907 2.1331C16.8402 2.1275 16.8903 2.12778 16.9397 2.13393C19.9627 2.46649 22.7814 3.82163 24.929 5.97491C25.2049 6.25094 25.4686 6.5386 25.7202 6.8379C25.8209 6.95776 25.9627 7.03583 26.1179 7.05691C26.2731 7.07799 26.4305 7.04058 26.5596 6.95195L27.2149 6.48145C27.2174 6.48477 27.2197 6.48823 27.2223 6.49154C27.2913 6.4421 27.3494 6.37901 27.3931 6.30617C27.4367 6.23334 27.4649 6.15232 27.4759 6.06814C27.4869 5.98396 27.4804 5.89841 27.457 5.81682C27.4336 5.73522 27.3936 5.65931 27.3396 5.5938C25.6805 3.59037 23.5423 2.03844 21.1234 1.08198C18.7044 0.125513 16.083 -0.204491 13.5025 0.12258C10.9219 0.449652 8.46577 1.4232 6.36191 2.95291C4.25805 4.48262 2.57463 6.51892 1.46783 8.87291C0.361033 11.2269 -0.133285 13.8223 0.0307386 16.4183C0.194762 19.0143 1.01181 21.5269 2.40609 23.7228C3.80036 25.9188 5.72669 27.727 8.00636 28.9798C10.286 30.2325 12.8452 30.8892 15.4464 30.8889C16.3885 30.8889 17.3286 30.8032 18.2552 30.6328C18.374 30.6113 18.491 30.5854 18.6087 30.5613C18.7002 30.5422 18.7924 30.5252 18.8834 30.5045C21.9641 29.8151 24.758 28.1942 26.8855 25.8619C27.0739 25.6557 27.2553 25.446 27.4296 25.2327C27.4762 25.1761 27.5107 25.1106 27.5309 25.0402C27.5511 24.9698 27.5566 24.896 27.5471 24.8234C27.5376 24.7507 27.5133 24.6808 27.4756 24.618C27.4379 24.5552 27.3878 24.5007 27.3282 24.4581L26.5086 23.8743ZM4.2548 8.11544C5.32779 6.47468 6.74791 5.08948 8.41487 4.05766C10.0818 3.02584 11.955 2.37255 13.9021 2.14393C13.944 2.13855 13.9864 2.13725 14.0287 2.14003C14.3006 2.16177 14.5561 2.27899 14.7499 2.47094C14.9438 2.6629 15.0635 2.91722 15.0879 3.18894C15.1124 3.46065 15.0399 3.73225 14.8834 3.95569C14.7269 4.17913 14.4964 4.34003 14.2327 4.40991C12.6035 4.58978 11.0343 5.12805 9.63778 5.98609C8.24124 6.84414 7.05195 8.00068 6.15525 9.37272C6.12953 9.41347 6.09874 9.4508 6.06362 9.48379C5.86457 9.66519 5.60834 9.77123 5.33932 9.78353C5.0703 9.79583 4.80545 9.71362 4.59068 9.55115C4.37591 9.38867 4.22476 9.15618 4.16341 8.89396C4.10207 8.63174 4.1344 8.35632 4.2548 8.11544V8.11544ZM7.25274 23.7337C7.19808 23.9098 7.10216 24.0702 6.97297 24.2017C6.84379 24.3332 6.68506 24.432 6.51001 24.4897C6.33495 24.5475 6.14863 24.5626 5.96655 24.5339C5.78447 24.5051 5.6119 24.4332 5.46319 24.3243C5.42565 24.2959 5.39135 24.2634 5.36092 24.2274C3.78871 22.4191 2.73009 20.2223 2.29531 17.8659C1.86052 15.5094 2.06548 13.0795 2.88884 10.8292C2.90436 10.785 2.92483 10.7427 2.94983 10.7032C3.04966 10.5479 3.18513 10.4186 3.34498 10.3263C3.50483 10.2339 3.68444 10.1811 3.86884 10.1721C4.05324 10.1632 4.23711 10.1984 4.40514 10.2749C4.57317 10.3514 4.72051 10.4669 4.83488 10.6118C5.01313 10.8359 5.1017 11.1183 5.08336 11.4041C5.07879 11.4594 5.06612 11.5138 5.04575 11.5655C4.34705 13.444 4.16969 15.4767 4.53246 17.4479C4.89524 19.4191 5.78463 21.2554 7.10636 22.7621C7.14281 22.802 7.17338 22.8469 7.19717 22.8954C7.32042 23.1579 7.34027 23.4572 7.25274 23.7337V23.7337Z" fill="url(#paint0_linear_202_504)"/>
<path fill-rule="evenodd" clip-rule="evenodd" d="M20.0661 10.3924C19.228 9.55097 18.1926 8.93264 17.0544 8.59372C16.334 8.41222 15.5952 8.3139 14.8525 8.30066L14.8478 8.30076C14.7223 8.30528 14.6035 8.35854 14.5166 8.44923C14.4298 8.53992 14.3817 8.66091 14.3826 8.78647V9.98439C14.3825 10.0492 14.3955 10.1134 14.4206 10.1731C14.4458 10.2329 14.4827 10.287 14.5292 10.3322C14.5757 10.3774 14.6308 10.4128 14.6912 10.4363C14.7516 10.4598 14.8161 10.4709 14.8809 10.469C14.9204 10.4678 14.9601 10.4672 14.9999 10.4672C15.6534 10.4669 16.3005 10.5953 16.9044 10.8451C17.5082 11.095 18.0569 11.4613 18.5191 11.9233C18.9814 12.3853 19.348 12.9338 19.5982 13.5375C19.8483 14.1412 19.9771 14.7883 19.9771 15.4418C19.9771 16.0953 19.8483 16.7424 19.5982 17.3461C19.348 17.9498 18.9814 18.4983 18.5191 18.9603C18.0569 19.4223 17.5082 19.7886 16.9044 20.0385C16.3005 20.2883 15.6534 20.4167 14.9999 20.4164C14.9601 20.4164 14.9204 20.4158 14.8809 20.4146C14.8161 20.4127 14.7516 20.4238 14.6912 20.4473C14.6308 20.4708 14.5757 20.5062 14.5292 20.5514C14.4827 20.5966 14.4458 20.6507 14.4206 20.7104C14.3955 20.7702 14.3825 20.8344 14.3826 20.8992V22.0935C14.3826 22.2203 14.4319 22.3422 14.5201 22.4333C14.6083 22.5244 14.7285 22.5775 14.8552 22.5815C14.9091 22.583 14.963 22.5838 15.017 22.5838C15.6577 22.5843 16.2955 22.4984 16.9133 22.3284C18.0794 22.0329 19.2542 21.1902 19.2542 21.1902C19.5423 20.9784 19.8138 20.7447 20.0661 20.4912C20.7292 19.8281 21.2553 19.0409 21.6142 18.1745C21.9731 17.3082 22.1578 16.3796 22.1578 15.4418C22.1578 14.504 21.9731 13.5754 21.6142 12.709C21.2553 11.8427 20.7292 11.0555 20.0661 10.3924L20.0661 10.3924Z" fill="#4BBE9E"/>
<path d="M14.8779 18.1799C16.3899 18.1799 17.6156 16.9542 17.6156 15.4422C17.6156 13.9302 16.3899 12.7045 14.8779 12.7045C13.3659 12.7045 12.1402 13.9302 12.1402 15.4422C12.1402 16.9542 13.3659 18.1799 14.8779 18.1799Z" fill="#4BBE9E"/>
</g>
<defs>
<linearGradient id="paint0_linear_202_504" x1="0.00132675" y1="15.4421" x2="27.5515" y2="15.4421" gradientUnits="userSpaceOnUse">
<stop offset="0.08686" stop-color="#4BBE9E"/>
<stop offset="0.55663" stop-color="#118ACB"/>
</linearGradient>
<clipPath id="clip0_202_504">
<rect width="119" height="31" fill="white"/>
</clipPath>
</defs>
</svg>
