<?xml version="1.0" encoding="utf-8"?>
<!-- Generator: Adobe Illustrator 21.1.0, SVG Export Plug-In . SVG Version: 6.00 Build 0)  -->
<svg version="1.1" id="Layer_1" xmlns="http://www.w3.org/2000/svg" xmlns:xlink="http://www.w3.org/1999/xlink" x="0px" y="0px"
	 viewBox="0 0 182 59" style="enable-background:new 0 0 182 59;" xml:space="preserve">
<g>
	<path style="fill-rule:evenodd;clip-rule:evenodd;fill:#3EC3E1;" d="M28.50781,54c13.53103,0,24.50043-10.96906,24.50043-24.50009
		c0-1.36567-0.1137-2.70522-0.32866-4.00959c-0.17073,2.15512-0.71672,3.92781-1.63815,5.31636
		c-1.13143,1.70491-2.71785,2.55771-4.75927,2.55771c-2.19712,0-3.82025-0.7869-4.86956-2.36068
		c-1.04913-1.57396-1.5743-4.05415-1.5743-7.43939c0-2.46005,0.60012-4.53817,1.80171-6.2354
		c1.20126-1.69671,2.80561-2.54558,4.81441-2.54558c0.65389,0,1.25589,0.07495,1.80769,0.224
		C43.80248,8.93942,36.61561,5,28.50781,5c-7.11176,0-13.51396,3.03114-17.99015,7.87065h5.85979v6.23915
		c2.52919-4.6459,6.28764-6.96937,11.27381-6.96937c1.24087,0,3.02909,0.21922,5.36365,0.65714l-2.6931,6.30847
		c2.20634-1.11162,3.9635-2.47063,5.27214-4.07686h1.27859v18.08935h-3.19743V20.13299l-3.66455,2.20105v-2.86997
		c-1.46879-0.99006-2.94782-1.48569-4.43847-1.48569c-2.45697,0-4.6039,1.13143-6.43993,3.39309
		c-1.83722,2.26251-2.75473,4.98668-2.75473,8.17301v21.2458C19.95339,52.83255,24.0941,54,28.50781,54L28.50781,54z
		 M9.44514,14.111c-3.40026,4.2061-5.43775,9.55917-5.43775,15.38891c0,5.82992,2.03749,11.18298,5.43775,15.38908V14.111
		L9.44514,14.111z M46.39263,17.36563c1.0744,0,1.84713,0.46319,2.31817,1.38991c0.47121,0.92638,0.7075,2.60722,0.7075,5.042
		c0,2.61473-0.24636,4.433-0.73858,5.45363c-0.4917,1.02079-1.32367,1.53076-2.49624,1.53076
		c-1.08157,0-1.85652-0.56563-2.32397-1.69723c-0.46746-1.13091-0.70085-2.89746-0.70085-5.29929
		C43.15866,19.50573,44.23699,17.36563,46.39263,17.36563L46.39263,17.36563z"/>
	<g>
		<linearGradient id="SVGID_1_" gradientUnits="userSpaceOnUse" x1="68.35057" y1="22.69966" x2="173.42419" y2="22.69966">
			<stop  offset="0" style="stop-color:#231F20"/>
			<stop  offset="1" style="stop-color:#3EC3E1"/>
		</linearGradient>
		<path style="fill-rule:evenodd;clip-rule:evenodd;fill:url(#SVGID_1_);" d="M73.72273,14.57522
			c-0.98494-0.1849-1.73888-0.27727-2.262-0.27727c-2.10339,0-3.68828,0.97999-4.755,2.93894v-2.63078h-2.92358v16.47936h2.92358
			v-9.44734c0-1.34399,0.38721-2.493,1.16199-3.44738c0.77443-0.95387,1.6793-1.43106,2.71546-1.43106
			c0.64655,0,1.28747,0.22127,1.92327,0.66158L73.72273,14.57522L73.72273,14.57522z M79.74403,8.89742
			c-0.34846,0.34846-0.52261,0.77477-0.52261,1.27706c0,0.50246,0.17671,0.93065,0.53098,1.28457
			c0.35375,0.35375,0.77665,0.53131,1.26886,0.53131c0.5028,0,0.93116-0.17756,1.28491-0.53131
			c0.35427-0.35392,0.53098-0.78211,0.53098-1.28457c0-0.49256-0.1767-0.91562-0.53098-1.26989
			c-0.35375-0.35375-0.78211-0.53046-1.28491-0.53046C80.51898,8.37414,80.09301,8.54896,79.74403,8.89742L79.74403,8.89742z
			 M82.34493,31.08548V14.60612h-5.18558v2.46193h2.262v14.01744H82.34493L82.34493,31.08548z M91.44621,31.02402
			c0.79475,0.24636,1.54101,0.36929,2.23878,0.36929c2.48275,0,4.38042-0.79236,5.69333-2.37724
			c1.31291-1.58506,1.96971-3.62869,1.96971-6.13177c0-2.8109-0.65134-4.94468-1.95418-6.40135
			c-1.30284-1.45616-3.12402-2.185-5.4625-2.185c-1.56952,0-2.90804,0.55402-4.01642,1.66189v-1.35372h-2.92307v22.94217h2.92307
			v-7.37024C90.14098,30.49595,90.65112,30.77766,91.44621,31.02402L91.44621,31.02402z M91.33096,17.19097
			c0.59483-0.287,1.09763-0.43126,1.50806-0.43126c1.89767,0,3.27733,0.48265,4.13883,1.44659
			c0.86201,0.96462,1.2926,2.48805,1.2926,4.5701c0,4.10349-1.81572,6.15498-5.4468,6.15498
			c-0.56443,0-1.14423-0.12583-1.73888-0.37697c-0.59534-0.25131-0.98494-0.51543-1.16984-0.79287v-9.60117
			C90.2639,17.80133,90.7358,17.47848,91.33096,17.19097L91.33096,17.19097z M109.31838,31.02402
			c0.79458,0.24636,1.54084,0.36929,2.23878,0.36929c2.48224,0,4.37973-0.79236,5.69333-2.37724
			c1.31291-1.58506,1.96971-3.62869,1.96971-6.13177c0-2.8109-0.65202-4.94468-1.95435-6.40135
			c-1.30284-1.45616-3.1235-2.185-5.46284-2.185c-1.56901,0-2.90821,0.55402-4.0154,1.66189v-1.35372h-2.9241v22.94217h2.9241
			v-7.37024C108.01264,30.49595,108.52312,30.77766,109.31838,31.02402L109.31838,31.02402z M109.20263,17.19097
			c0.59483-0.287,1.09763-0.43126,1.50806-0.43126c1.89767,0,3.27734,0.48265,4.13935,1.44659
			c0.86184,0.96462,1.29259,2.48805,1.29259,4.5701c0,4.10349-1.81589,6.15498-5.44697,6.15498
			c-0.56477,0-1.14458-0.12583-1.73888-0.37697c-0.59517-0.25131-0.98477-0.51543-1.16916-0.79287v-9.60117
			C108.13608,17.80133,108.6078,17.47848,109.20263,17.19097L109.20263,17.19097z M128.64432,31.39331v-2.61592
			c-0.82086,0-1.48483-0.25353-1.99258-0.76129c-0.50758-0.50809-0.76163-1.20313-0.76163-2.08529V7.85102h-2.92358v18.572
			C122.96654,29.73672,124.85925,31.39331,128.64432,31.39331L128.64432,31.39331L128.64432,31.39331z M146.45486,21.34534
			c0-2.10288-0.64655-3.78986-1.93915-5.06231c-1.3334-1.32316-3.17471-1.98508-5.52396-1.98508
			c-2.02094,0-3.77007,0.73363-5.24706,2.20054c-1.65181,1.64157-2.47746,3.82128-2.47746,6.53964
			c0,2.61592,0.80534,4.69832,2.416,6.24701c1.44659,1.40596,3.2058,2.10817,5.2776,2.10817
			c1.43636,0,2.7392-0.21546,3.90836-0.64621c0.93355-0.32814,1.62621-0.71809,2.07727-1.16967l-1.23079-2.10817
			c-1.11845,0.97521-2.51366,1.46213-4.18527,1.46213c-1.46692,0-2.66714-0.45107-3.60069-1.35423
			c-1.05649-1.03565-1.5849-2.51793-1.5849-4.44649h11.87871C146.37804,22.58706,146.45486,21.99138,146.45486,21.34534
			L146.45486,21.34534L146.45486,21.34534z M142.43861,18.05299c0.73842,0.7898,1.1077,1.77457,1.1077,2.95397h-9.12448
			c0.11267-1.18999,0.58987-2.185,1.43106-2.98504c0.88216-0.84102,1.97449-1.26221,3.27733-1.26221
			C140.52542,16.75971,141.62834,17.19097,142.43861,18.05299L142.43861,18.05299L142.43861,18.05299z M158.19528,31.08548V8.45062
			h-0.92348c-0.71809,0.92348-1.73103,1.89818-3.03865,2.92409c-1.30814,1.02557-2.54182,1.83091-3.70091,2.41549v2.87765
			l4.58546-2.86212v17.27975H158.19528L158.19528,31.08548z M165.2437,28.85439c1.23592,1.69296,3.04941,2.53892,5.43962,2.53892
			c2.39023,0,4.2061-1.04879,5.44698-3.14672c1.24138-2.09759,1.86232-4.97268,1.86232-8.62476
			c0-4.24674-0.59294-7.22153-1.77765-8.92456c-1.18469-1.70252-2.95703-2.55395-5.31618-2.55395
			c-2.38016,0-4.22643,1.02079-5.53951,3.06204c-1.31291,2.04142-1.96971,4.68278-1.96971,7.92443
			C163.38957,23.92046,164.00761,27.16194,165.2437,28.85439L165.2437,28.85439z M170.82179,10.75923
			c0.94362,0,1.72334,0.287,2.33899,0.86133c0.61548,0.57451,1.06177,1.42098,1.33853,2.53892
			c0.27692,1.11845,0.41521,2.87219,0.41521,5.26258c0,3.46752-0.35904,5.8936-1.0768,7.27822
			c-0.71808,1.38462-1.84131,2.0771-3.36969,2.0771c-2.66765,0-4.00089-3.12333-4.00089-9.37085
			C166.46715,13.64167,167.91904,10.75923,170.82179,10.75923L170.82179,10.75923z"/>
		<path style="fill-rule:evenodd;clip-rule:evenodd;fill:#6D6E70;" d="M63.78267,48.53562v-7.77829h2.1483
			c2.74021,0,4.11169,1.26272,4.11169,3.79191c0,1.19972-0.38141,2.16468-1.14269,2.89404
			c-0.76026,0.72731-1.77901,1.09233-3.05607,1.09233H63.78267L63.78267,48.53562z M64.69402,41.58162v6.13023h1.16045
			c1.02012,0,1.81247-0.27436,2.381-0.82036c0.56819-0.54633,0.85177-1.31974,0.85177-2.32158
			c0-1.99242-1.05938-2.98829-3.17899-2.98829H64.69402L64.69402,41.58162z M72.49638,41.57035
			c-0.15929,0-0.29433-0.05361-0.40753-0.16305c-0.1108-0.10739-0.16646-0.24397-0.16646-0.41129
			c0-0.16663,0.05566-0.30544,0.16646-0.41436c0.1132-0.11081,0.24825-0.16646,0.40753-0.16646
			c0.16305,0,0.30202,0.05566,0.4147,0.16646c0.11524,0.10892,0.17227,0.24773,0.17227,0.41436
			c0,0.15963-0.05703,0.29468-0.17227,0.40548C72.7984,41.51469,72.65942,41.57035,72.49638,41.57035L72.49638,41.57035z
			 M72.93191,46.98402c0,0.50912,0.196,0.76504,0.58987,0.76504c0.15981,0,0.30254-0.02083,0.42836-0.05941v0.80328
			c-0.0688,0.01639-0.15929,0.03483-0.27385,0.05037c-0.11337,0.01639-0.2339,0.02561-0.35973,0.02561
			c-0.17807,0-0.34454-0.02953-0.49938-0.08707c-0.15588-0.05907-0.29092-0.14614-0.40412-0.26617
			c-0.11422-0.119-0.20522-0.26856-0.27197-0.44817c-0.06676-0.17807-0.10022-0.38722-0.10022-0.62624v-4.16018h0.89104V46.98402
			L72.93191,46.98402z M80.30642,48.09121c0,2.03851-0.97555,3.05862-2.92887,3.05862c-0.68719,0-1.28679-0.12924-1.80171-0.39046
			v-0.88865c0.62624,0.34607,1.22243,0.51987,1.79061,0.51987c1.36618,0,2.04945-0.72748,2.04945-2.18124v-0.60695h-0.02032
			c-0.42393,0.70955-1.06126,1.06279-1.91116,1.06279c-0.69009,0-1.24564-0.24636-1.66563-0.74046
			c-0.42256-0.49256-0.63358-1.15516-0.63358-1.98661c0-0.94414,0.22793-1.69432,0.68138-2.25142
			c0.45346-0.55743,1.07594-0.83521,1.86233-0.83521c0.74967,0,1.30369,0.29997,1.66666,0.90009h0.02032v-0.7705h0.89053V48.09121
			L80.30642,48.09121z M79.41589,46.0252v-0.8207c0-0.44048-0.14803-0.81797-0.44612-1.13296
			c-0.2981-0.31466-0.67028-0.4719-1.11504-0.4719c-0.54975,0-0.98101,0.19992-1.29174,0.60012
			c-0.31158,0.39934-0.46695,0.95865-0.46695,1.67742c0,0.61804,0.15007,1.11214,0.44817,1.48484
			c0.2981,0.37014,0.69436,0.55504,1.1847,0.55504c0.49989,0,0.90555-0.17756,1.21867-0.53148
			C79.26019,47.03046,79.41589,46.57649,79.41589,46.0252L79.41589,46.0252z M83.15061,41.57035
			c-0.15861,0-0.29366-0.05361-0.40685-0.16305c-0.11131-0.10739-0.16698-0.24397-0.16698-0.41129
			c0-0.16663,0.05566-0.30544,0.16698-0.41436c0.1132-0.11081,0.24825-0.16646,0.40685-0.16646
			c0.16373,0,0.30202,0.05566,0.41487,0.16646c0.11507,0.10892,0.17226,0.24773,0.17226,0.41436
			c0,0.15963-0.05719,0.29468-0.17226,0.40548C83.45263,41.51469,83.31434,41.57035,83.15061,41.57035L83.15061,41.57035z
			 M83.58631,46.98402c0,0.50912,0.196,0.76504,0.59039,0.76504c0.15912,0,0.30202-0.02083,0.42785-0.05941v0.80328
			c-0.0688,0.01639-0.15929,0.03483-0.27402,0.05037c-0.11319,0.01639-0.23373,0.02561-0.35955,0.02561
			c-0.17757,0-0.34454-0.02953-0.49939-0.08707c-0.15588-0.05907-0.29092-0.14614-0.40411-0.26617
			c-0.11422-0.119-0.20522-0.26856-0.27146-0.44817c-0.06727-0.17807-0.10022-0.38722-0.10022-0.62624v-4.16018h0.89053V46.98402
			L83.58631,46.98402z M88.79613,48.48184c-0.20914,0.11473-0.48692,0.17227-0.82906,0.17227
			c-0.97418,0-1.45923-0.54258-1.45923-1.62757v-3.28655h-0.95575v-0.7589h0.95575v-1.35508l0.88916-0.28939v1.64447h1.39913v0.7589
			H87.397v3.13119c0,0.37168,0.06232,0.63699,0.19054,0.79611c0.12582,0.15929,0.33497,0.23919,0.62931,0.23919
			c0.22451,0,0.41658-0.06112,0.57928-0.18541V48.48184L88.79613,48.48184z M94.60898,48.53562h-0.89053v-0.86833h-0.02032
			c-0.38721,0.66653-0.95728,0.99792-1.70935,0.99792c-0.55316,0-0.98631-0.14666-1.29942-0.43895
			c-0.31312-0.29229-0.46848-0.68087-0.46848-1.16626c0-1.03718,0.61121-1.64259,1.83279-1.81059l1.66479-0.23373
			c0-0.94413-0.38142-1.41603-1.14407-1.41603c-0.66891,0-1.27193,0.22741-1.8111,0.68343v-0.91084
			c0.546-0.34846,1.1736-0.52073,1.88657-0.52073c1.30575,0,1.95913,0.69061,1.95913,2.07181V48.53562L94.60898,48.53562z
			 M93.71845,45.72523l-1.3387,0.1849c-0.41282,0.05754-0.72389,0.15912-0.93304,0.30731
			c-0.20914,0.14666-0.31499,0.40549-0.31499,0.77819c0,0.26992,0.0968,0.49221,0.29076,0.66397
			c0.19224,0.17278,0.4497,0.25746,0.77187,0.25746c0.44099,0,0.80534-0.15485,1.09233-0.46268
			c0.28938-0.30919,0.43178-0.7017,0.43178-1.17547V45.72523L93.71845,45.72523z M97.76424,46.98402
			c0,0.50912,0.196,0.76504,0.59055,0.76504c0.15912,0,0.30185-0.02083,0.42768-0.05941v0.80328
			c-0.06863,0.01639-0.15912,0.03483-0.27385,0.05037c-0.1132,0.01639-0.23373,0.02561-0.35905,0.02561
			c-0.17807,0-0.34505-0.02953-0.4999-0.08707c-0.15588-0.05907-0.29092-0.14614-0.40411-0.26617
			c-0.11422-0.119-0.20522-0.26856-0.27163-0.44817c-0.06727-0.17807-0.10005-0.38722-0.10005-0.62624V40.3131h0.89036V46.98402
			L97.76424,46.98402z M107.59589,48.53562h-4.03418v-7.77829h0.91068v6.95451h3.1235V48.53562L107.59589,48.53562z
			 M109.71413,41.57035c-0.15912,0-0.29417-0.05361-0.40736-0.16305c-0.11081-0.10739-0.16647-0.24397-0.16647-0.41129
			c0-0.16663,0.05566-0.30544,0.16647-0.41436c0.11319-0.11081,0.24824-0.16646,0.40736-0.16646
			c0.16322,0,0.30202,0.05566,0.41488,0.16646c0.11473,0.10892,0.17175,0.24773,0.17175,0.41436
			c0,0.15963-0.05702,0.29468-0.17175,0.40548C110.01616,41.51469,109.87736,41.57035,109.71413,41.57035L109.71413,41.57035z
			 M110.14984,46.98402c0,0.50912,0.196,0.76504,0.58987,0.76504c0.15981,0,0.30254-0.02083,0.42785-0.05941v0.80328
			c-0.06829,0.01639-0.15878,0.03483-0.27351,0.05037c-0.1132,0.01639-0.23373,0.02561-0.35956,0.02561
			c-0.17807,0-0.34453-0.02953-0.49989-0.08707c-0.15536-0.05907-0.29041-0.14614-0.40361-0.26617
			c-0.11473-0.119-0.20573-0.26856-0.27197-0.44817c-0.06676-0.17807-0.10022-0.38722-0.10022-0.62624v-4.16018h0.89104V46.98402
			L110.14984,46.98402z M112.44718,48.33569v-0.95541c0.48351,0.35717,1.01875,0.53678,1.5994,0.53678
			c0.7816,0,1.17274-0.26088,1.17274-0.78109c0-0.14819-0.03346-0.27402-0.10022-0.37561
			c-0.06829-0.10397-0.15775-0.19446-0.27248-0.27436c-0.11285-0.0799-0.24773-0.15144-0.40121-0.21495
			c-0.15382-0.06283-0.31841-0.12924-0.49648-0.19788c-0.24636-0.09834-0.46131-0.196-0.64809-0.29622
			c-0.1849-0.09817-0.34077-0.21153-0.4666-0.33531c-0.12378-0.12583-0.21819-0.26617-0.28154-0.42597
			c-0.063-0.15878-0.09389-0.34607-0.09389-0.55897c0-0.26088,0.05856-0.49068,0.17756-0.69248
			c0.12002-0.19992,0.27966-0.36826,0.47719-0.50331c0.20044-0.13556,0.42632-0.23919,0.68189-0.30732
			c0.25353-0.0688,0.51834-0.1021,0.78895-0.1021c0.48094,0,0.91067,0.08315,1.29021,0.24824v0.90163
			c-0.40702-0.26822-0.87756-0.40173-1.40887-0.40173c-0.16698,0-0.31705,0.01844-0.4521,0.05703
			c-0.13351,0.03739-0.24824,0.091-0.34402,0.1598c-0.09492,0.06829-0.16885,0.15195-0.22212,0.24585
			c-0.05225,0.09629-0.07785,0.20231-0.07785,0.31841c0,0.14427,0.0256,0.2648,0.07785,0.36297
			c0.05327,0.09834,0.12975,0.18541,0.23134,0.26139c0.09971,0.07546,0.22349,0.14427,0.36775,0.20522
			c0.14529,0.06146,0.30936,0.1277,0.49461,0.20026c0.24448,0.0939,0.46661,0.19019,0.66106,0.29041
			c0.19412,0.09971,0.36161,0.21102,0.50041,0.33736c0.13658,0.12344,0.2421,0.26804,0.31602,0.43109
			c0.0741,0.1627,0.11132,0.35529,0.11132,0.57946c0,0.27573-0.06095,0.51492-0.18149,0.71621
			c-0.12241,0.20232-0.28307,0.37014-0.48487,0.50382c-0.20368,0.13539-0.43741,0.23373-0.70033,0.29997
			c-0.26463,0.06488-0.54053,0.09629-0.83095,0.09629C113.36178,48.6652,112.86581,48.55593,112.44718,48.33569L112.44718,48.33569z
			 M120.72178,48.48184c-0.20898,0.11473-0.48676,0.17227-0.8289,0.17227c-0.97418,0-1.45923-0.54258-1.45923-1.62757v-3.28655
			h-0.95575v-0.7589h0.95575v-1.35508l0.88916-0.28939v1.64447h1.39896v0.7589h-1.39896v3.13119
			c0,0.37168,0.06232,0.63699,0.19019,0.79611c0.12583,0.15929,0.3348,0.23919,0.62949,0.23919
			c0.22417,0,0.41675-0.06112,0.57928-0.18541V48.48184L120.72178,48.48184z M126.93447,45.98064h-3.9215
			c0.01452,0.61856,0.18149,1.09575,0.4999,1.43311c0.31841,0.33531,0.75548,0.50331,1.3124,0.50331
			c0.62624,0,1.20023-0.20522,1.72591-0.61856v0.83538c-0.4888,0.35563-1.13484,0.53131-1.93642,0.53131
			c-0.78535,0-1.40203-0.25166-1.85003-0.75497c-0.44971-0.50621-0.6737-1.21474-0.6737-2.12934
			c0-0.86492,0.24636-1.5685,0.73516-2.11244c0.49068-0.54446,1.10001-0.81694,1.82545-0.81694
			c0.72731,0,1.28867,0.2351,1.68664,0.70563c0.39814,0.46831,0.59619,1.1217,0.59619,1.95657V45.98064L126.93447,45.98064z
			 M126.02363,45.22721c-0.00393-0.51305-0.12771-0.91323-0.37066-1.20023c-0.24397-0.28461-0.58321-0.42734-1.01823-0.42734
			c-0.41829,0-0.77579,0.14956-1.06808,0.44954c-0.29246,0.30014-0.47429,0.69265-0.54207,1.17804H126.02363L126.02363,45.22721z
			 M133.54103,48.53562h-0.89053v-3.16806c0-1.1794-0.42972-1.76791-1.29071-1.76791c-0.44424,0-0.81268,0.16646-1.10342,0.50143
			c-0.2923,0.33532-0.43707,0.75736-0.43707,1.26648v3.16806h-0.89053v-5.55453h0.89053v0.92245h0.02237
			c0.41862-0.7017,1.02539-1.05204,1.82202-1.05204c0.60695,0,1.0715,0.196,1.39384,0.58851
			c0.32234,0.39097,0.48351,0.95967,0.48351,1.70013V48.53562L133.54103,48.53562z M136.26128,41.57035
			c-0.15913,0-0.29417-0.05361-0.40755-0.16305c-0.11079-0.10739-0.16646-0.24397-0.16646-0.41129
			c0-0.16663,0.05566-0.30544,0.16646-0.41436c0.11337-0.11081,0.24841-0.16646,0.40755-0.16646
			c0.16304,0,0.30202,0.05566,0.4147,0.16646c0.11472,0.10892,0.17192,0.24773,0.17192,0.41436
			c0,0.15963-0.05721,0.29468-0.17192,0.40548C136.56329,41.51469,136.42432,41.57035,136.26128,41.57035L136.26128,41.57035z
			 M136.69681,46.98402c0,0.50912,0.19598,0.76504,0.59004,0.76504c0.15962,0,0.30202-0.02083,0.42784-0.05941v0.80328
			c-0.06828,0.01639-0.15878,0.03483-0.27402,0.05037c-0.11319,0.01639-0.23322,0.02561-0.35905,0.02561
			c-0.17807,0-0.34453-0.02953-0.49989-0.08707c-0.15587-0.05907-0.29092-0.14614-0.40411-0.26617
			c-0.11421-0.119-0.20522-0.26856-0.27164-0.44817c-0.06676-0.17807-0.10004-0.38722-0.10004-0.62624v-4.16018h0.89087V46.98402
			L136.69681,46.98402z M143.94173,48.53562h-0.89104v-3.16806c0-1.1794-0.42921-1.76791-1.29021-1.76791
			c-0.44424,0-0.8125,0.16646-1.10342,0.50143c-0.2923,0.33532-0.43742,0.75736-0.43742,1.26648v3.16806h-0.89001v-5.55453h0.89001
			v0.92245h0.02272c0.41862-0.7017,1.02557-1.05204,1.82202-1.05204c0.60695,0,1.0715,0.196,1.39384,0.58851
			c0.32234,0.39097,0.48351,0.95967,0.48351,1.70013V48.53562L143.94173,48.53562z M151.00807,48.09121
			c0,2.03851-0.97624,3.05862-2.9294,3.05862c-0.68735,0-1.28696-0.12924-1.80188-0.39046v-0.88865
			c0.62624,0.34607,1.22243,0.51987,1.79062,0.51987c1.36635,0,2.04961-0.72748,2.04961-2.18124v-0.60695h-0.02031
			c-0.42392,0.70955-1.06126,1.06279-1.91115,1.06279c-0.69009,0-1.24565-0.24636-1.66582-0.74046
			c-0.42256-0.49256-0.63341-1.15516-0.63341-1.98661c0-0.94414,0.22792-1.69432,0.68138-2.25142
			c0.45346-0.55743,1.07578-0.83521,1.86215-0.83521c0.75018,0,1.30386,0.29997,1.66684,0.90009h0.02031v-0.7705h0.89105V48.09121
			L151.00807,48.09121z M150.11702,46.0252v-0.8207c0-0.44048-0.14801-0.81797-0.44627-1.13296
			c-0.2981-0.31466-0.67012-0.4719-1.11505-0.4719c-0.54974,0-0.98083,0.19992-1.29156,0.60012
			c-0.31175,0.39934-0.4666,0.95865-0.4666,1.67742c0,0.61804,0.14955,1.11214,0.44765,1.48484
			c0.2981,0.37014,0.69453,0.55504,1.18469,0.55504c0.50008,0,0.90555-0.17756,1.21867-0.53148
			C149.96115,47.03046,150.11702,46.57649,150.11702,46.0252L150.11702,46.0252z M161.21994,41.58162h-2.24596v6.954h-0.91084
			v-6.954H155.823v-0.82429h5.39694V41.58162L161.21994,41.58162z M164.14745,48.6652c-0.81985,0-1.47562-0.25934-1.96579-0.77768
			c-0.48932-0.51834-0.73517-1.20706-0.73517-2.06464c0-0.93304,0.25508-1.66035,0.76419-2.18654
			c0.51151-0.52397,1.20023-0.78485,2.06839-0.78485c0.8277,0,1.47426,0.25354,1.93831,0.76453
			c0.46506,0.50963,0.6964,1.21679,0.6964,2.11978c0,0.88712-0.24977,1.59667-0.75018,2.12952
			C165.66232,48.39852,164.98965,48.6652,164.14745,48.6652L164.14745,48.6652z M164.21231,43.59964
			c-0.57005,0-1.02216,0.19463-1.35507,0.58321c-0.33344,0.38858-0.49991,0.92382-0.49991,1.60862
			c0,0.65731,0.16835,1.17599,0.5052,1.55552c0.33684,0.37936,0.78688,0.57007,1.34978,0.57007
			c0.57588,0,1.01875-0.18678,1.32761-0.55897c0.30919-0.37219,0.46301-0.90162,0.46301-1.58881
			c0-0.69402-0.15382-1.22925-0.46301-1.60486C165.23106,43.78642,164.78819,43.59964,164.21231,43.59964L164.21231,43.59964z
			 M171.30563,48.6652c-0.81967,0-1.47511-0.25934-1.96579-0.77768c-0.4888-0.51834-0.73515-1.20706-0.73515-2.06464
			c0-0.93304,0.25558-1.66035,0.76469-2.18654c0.511-0.52397,1.19972-0.78485,2.06839-0.78485
			c0.8277,0,1.47374,0.25354,1.93829,0.76453c0.46457,0.50963,0.69641,1.21679,0.69641,2.11978
			c0,0.88712-0.25012,1.59667-0.75052,2.12952C172.82053,48.39852,172.14836,48.6652,171.30563,48.6652L171.30563,48.6652z
			 M171.37051,43.59964c-0.57007,0-1.02165,0.19463-1.35509,0.58321c-0.33292,0.38858-0.49989,0.92382-0.49989,1.60862
			c0,0.65731,0.1685,1.17599,0.50536,1.55552c0.33719,0.37936,0.7869,0.57007,1.34962,0.57007
			c0.57639,0,1.01874-0.18678,1.32759-0.55897c0.30919-0.37219,0.4632-0.90162,0.4632-1.58881
			c0-0.69402-0.15401-1.22925-0.4632-1.60486C172.38925,43.78642,171.9469,43.59964,171.37051,43.59964L171.37051,43.59964z
			 M176.97438,46.98402c0,0.50912,0.196,0.76504,0.58987,0.76504c0.15981,0,0.30254-0.02083,0.42836-0.05941v0.80328
			c-0.0688,0.01639-0.15929,0.03483-0.27402,0.05037c-0.1132,0.01639-0.23373,0.02561-0.35956,0.02561
			c-0.17807,0-0.34454-0.02953-0.49991-0.08707c-0.15536-0.05907-0.29041-0.14614-0.40359-0.26617
			c-0.11473-0.119-0.20522-0.26856-0.27197-0.44817c-0.06676-0.17807-0.10022-0.38722-0.10022-0.62624V40.3131h0.89104V46.98402z"/>
	</g>
</g>
</svg>
