<?xml version="1.0" encoding="UTF-8" standalone="no"?>
<svg
   version="1.0"
   width="1199.000000pt"
   height="436.000000pt"
   viewBox="0 0 1199.000000 436.000000"
   preserveAspectRatio="xMidYMid meet"
   id="svg114"
   sodipodi:docname="kemnaker-logo.svg"
   inkscape:version="1.2 (dc2aedaf03, 2022-05-15)"
   xmlns:inkscape="http://www.inkscape.org/namespaces/inkscape"
   xmlns:sodipodi="http://sodipodi.sourceforge.net/DTD/sodipodi-0.dtd"
   xmlns="http://www.w3.org/2000/svg"
   xmlns:svg="http://www.w3.org/2000/svg">
  <defs
     id="defs118" />
  <sodipodi:namedview
     id="namedview116"
     pagecolor="#ffffff"
     bordercolor="#000000"
     borderopacity="0.25"
     inkscape:showpageshadow="2"
     inkscape:pageopacity="0.0"
     inkscape:pagecheckerboard="0"
     inkscape:deskcolor="#d1d1d1"
     inkscape:document-units="pt"
     showgrid="false"
     inkscape:zoom="0.81943286"
     inkscape:cx="799.94351"
     inkscape:cy="291.05496"
     inkscape:window-width="1920"
     inkscape:window-height="991"
     inkscape:window-x="-9"
     inkscape:window-y="-9"
     inkscape:window-maximized="1"
     inkscape:current-layer="g112" />
  <g
     transform="translate(0.000000,436.000000) scale(0.100000,-0.100000)"
     fill="#000000"
     stroke="none"
     id="g112">
    <path
       d="M2207 3940 c-99 -25 -186 -98 -232 -196 -74 -156 -2 -349 160 -426 51 -24 73 -28 141 -28 70 0 89 4 142 30 201 101 248 351 97 519 -71 79 -212 125 -308 101z"
       id="path2"
       style="fill:#004269;fill-opacity:1" />
    <path
       d="M1494 3522 c-179 -64 -265 -258 -184 -418 23 -45 70 -99 207 -235 98 -97 188 -181 200 -188 28 -14 88 -14 116 0 31 16 276 259 293 291 18 35 18 91 0 126 -8 15 -97 109 -198 209 -197 196 -233 221 -331 229 -35 3 -69 -1 -103 -14z"
       id="path4"
       style="fill:#004269;fill-opacity:1" />
    <path
       d="M2875 3526 c-22 -7 -53 -20 -70 -28 -16 -9 -228 -215 -470 -458 -276 -277 -454 -449 -477 -459 l-37 -17 183 -182 c197 -196 233 -221 290 -202 40 13 900 870 931 927 29 55 28 192 -2 248 -27 52 -120 139 -169 160 -51 21 -129 26 -179 11z"
       id="path6"
       style="fill:#004269;fill-opacity:1" />
    <path
       d="M4607 3474 c-4 -4 -7 -117 -7 -251 l0 -244 48 3 47 3 3 76 c3 73 4 77 41 113 l39 38 42 -73 c24 -41 54 -93 67 -116 24 -42 26 -43 79 -43 30 0 54 3 54 8 0 4 -40 72 -89 151 l-89 145 82 88 c44 49 83 93 84 99 2 5 -21 9 -52 9 -62 0 -52 8 -174 -133 l-77 -88 -5 108 -5 108 -40 3 c-23 2 -44 0 -48 -4z"
       id="path8"
       style="fill:#004269;fill-opacity:1" />
    <path
       d="M5100 3230 l0 -250 178 2 177 3 3 38 3 37 -135 0 -136 0 0 70 0 70 120 0 120 0 0 40 0 40 -120 0 -121 0 3 58 3 57 128 3 128 3 -3 37 -3 37 -172 3 -173 2 0 -250z"
       id="path10"
       style="fill:#004269;fill-opacity:1" />
    <path
       d="M5555 3468 c-3 -7 -4 -119 -3 -248 l3 -235 43 -3 42 -3 1 183 c0 114 4 175 9 163 5 -11 26 -93 46 -183 l38 -163 45 3 46 3 46 190 47 190 1 -192 1 -193 40 0 40 0 0 250 0 251 -67 -3 -67 -3 -39 -155 c-21 -85 -42 -159 -46 -163 -5 -5 -26 65 -47 155 l-39 163 -68 3 c-49 2 -69 -1 -72 -10z"
       id="path12"
       style="fill:#004269;fill-opacity:1" />
    <path
       d="M6127 3473 c-4 -3 -7 -116 -7 -250 l0 -243 180 0 180 0 0 40 0 40 -130 0 -130 0 0 70 0 70 120 0 120 0 0 40 0 40 -120 0 -121 0 3 58 3 57 123 3 122 3 0 39 0 40 -168 0 c-93 0 -172 -3 -175 -7z"
       id="path14"
       style="fill:#004269;fill-opacity:1" />
    <path
       d="M6587 3473 c-4 -3 -7 -116 -7 -250 l0 -243 45 0 44 0 3 157 3 157 93 -157 94 -157 44 0 44 0 0 250 0 250 -40 0 -40 0 0 -160 c0 -88 -3 -160 -7 -160 -5 0 -46 66 -93 147 -47 80 -91 152 -98 159 -14 14 -73 19 -85 7z"
       id="path16"
       style="fill:#004269;fill-opacity:1" />
    <path
       d="M7040 3441 l0 -40 68 -3 67 -3 3 -207 2 -208 45 0 45 0 2 208 3 207 70 5 70 5 0 35 0 35 -187 3 -188 2 0 -39z"
       id="path18"
       style="fill:#004269;fill-opacity:1" />
    <path
       d="M7497 3473 c-4 -3 -7 -116 -7 -250 l0 -243 180 0 180 0 0 40 0 40 -130 0 -130 0 0 70 0 70 115 0 115 0 0 40 0 40 -115 0 -115 0 0 60 0 60 125 0 125 0 0 40 0 40 -168 0 c-93 0 -172 -3 -175 -7z"
       id="path20"
       style="fill:#004269;fill-opacity:1" />
    <path
       d="M7950 3231 l0 -251 45 0 45 0 0 105 0 105 36 0 c44 0 70 -26 137 -133 l48 -77 55 0 56 0 -23 38 c-57 93 -88 138 -108 156 -28 25 -27 30 14 45 48 17 75 58 75 116 0 25 -7 59 -15 75 -27 52 -64 63 -222 68 l-143 5 0 -252z m272 139 c20 -25 18 -64 -5 -87 -7 -6 -48 -13 -92 -15 l-80 -3 -3 54 c-5 83 -4 84 85 79 65 -4 79 -9 95 -28z"
       id="path22"
       style="fill:#004269;fill-opacity:1" />
    <path
       d="M8440 3230 l0 -250 45 0 45 0 0 250 0 250 -45 0 -45 0 0 -250z"
       id="path24"
       style="fill:#004269;fill-opacity:1" />
    <path
       d="M8766 3471 c-3 -4 -32 -82 -65 -172 -33 -90 -71 -193 -85 -228 -36 -90 -35 -93 21 -89 46 3 46 3 63 53 l17 50 99 3 100 3 18 -56 17 -55 50 0 c27 0 49 2 49 5 0 12 -174 471 -183 483 -11 13 -93 17 -101 3z m88 -209 c14 -40 26 -75 26 -78 0 -2 -29 -4 -64 -4 l-65 0 25 73 c35 104 34 101 43 91 5 -5 21 -42 35 -82z"
       id="path26"
       style="fill:#004269;fill-opacity:1" />
    <path
       d="M9124 3467 c-2 -7 -3 -118 -2 -247 l3 -235 43 -3 42 -3 0 155 c0 86 4 156 8 156 4 0 43 -62 86 -137 44 -76 86 -146 94 -155 10 -12 30 -18 59 -18 l43 0 -2 248 -3 247 -40 0 -40 0 -5 -160 -5 -160 -84 145 c-46 80 -91 153 -99 163 -18 20 -90 24 -98 4z"
       id="path28"
       style="fill:#004269;fill-opacity:1" />
    <path
       d="M1023 3052 c-92 -33 -163 -103 -199 -198 -23 -60 -15 -164 16 -219 13 -22 225 -243 472 -490 286 -288 451 -461 456 -478 7 -26 13 -21 194 159 201 199 219 226 198 288 -16 49 -869 902 -929 928 -63 29 -145 33 -208 10z"
       id="path30"
       style="fill:#004269;fill-opacity:1" />
    <path
       d="M3343 3060 c-63 -15 -122 -62 -300 -242 -192 -194 -206 -215 -188 -285 4 -17 62 -84 148 -170 219 -221 211 -222 470 35 220 219 242 252 241 368 -1 91 -25 143 -103 217 -79 76 -167 101 -268 77z"
       id="path32"
       style="fill:#004269;fill-opacity:1" />
    <path
       d="M7500 2704 c-48 -21 -68 -41 -99 -99 -23 -44 -26 -61 -25 -140 0 -59 6 -102 17 -125 56 -123 212 -164 357 -92 l55 28 3 102 3 102 -101 0 -100 0 0 -40 0 -40 55 0 c54 0 55 -1 55 -28 0 -36 -23 -57 -79 -72 -37 -10 -51 -9 -89 5 -58 23 -81 71 -82 171 0 110 45 164 139 164 37 0 49 -5 77 -36 32 -33 37 -35 74 -29 46 8 50 22 20 71 -30 48 -92 74 -176 74 -38 -1 -84 -7 -104 -16z"
       id="path34"
       style="fill:#004269;fill-opacity:1" />
    <path
       d="M4600 2465 l0 -245 50 0 50 0 0 78 c0 77 0 78 39 116 l38 38 65 -114 65 -113 57 -3 c31 -2 56 0 56 3 0 7 -69 122 -136 226 l-44 69 85 92 85 93 -57 3 c-65 4 -55 11 -195 -148 l-57 -65 -1 108 0 107 -50 0 -50 0 0 -245z"
       id="path36"
       style="fill:#004269;fill-opacity:1" />
    <path
       d="M5100 2465 l0 -245 181 0 180 0 -3 38 -3 37 -132 3 -133 3 0 69 0 70 120 0 120 0 0 40 0 40 -120 0 -120 0 0 55 0 54 128 3 127 3 3 38 3 37 -175 0 -176 0 0 -245z"
       id="path38"
       style="fill:#004269;fill-opacity:1" />
    <path
       d="M5520 2670 l0 -40 70 0 70 0 0 -205 0 -205 45 0 45 0 0 205 0 205 70 0 70 0 0 40 0 40 -185 0 -185 0 0 -40z"
       id="path40"
       style="fill:#004269;fill-opacity:1" />
    <path
       d="M5970 2465 l0 -245 180 0 180 0 0 40 0 40 -130 0 -130 0 0 70 0 70 115 0 115 0 0 40 0 40 -115 0 -115 0 0 55 0 55 125 0 125 0 0 40 0 40 -175 0 -175 0 0 -245z"
       id="path42"
       style="fill:#004269;fill-opacity:1" />
    <path
       d="M6430 2466 l0 -246 40 0 40 0 0 155 c0 85 4 155 8 155 4 0 48 -70 98 -155 l89 -155 48 0 47 0 0 245 0 245 -45 0 -45 0 0 -162 0 -162 -94 160 -93 159 -47 3 -46 3 0 -245z"
       id="path44"
       style="fill:#004269;fill-opacity:1" />
    <path
       d="M7035 2658 c-10 -29 -49 -135 -87 -236 -37 -101 -68 -188 -68 -193 0 -6 21 -9 47 -7 46 3 47 3 64 53 l17 50 98 0 99 0 19 -52 19 -53 48 0 c27 0 49 2 49 4 0 2 -40 111 -90 242 -49 131 -90 239 -90 241 0 2 -24 3 -53 3 l-53 0 -19 -52z m109 -156 c14 -41 24 -78 20 -83 -6 -10 -107 -13 -117 -3 -3 3 5 38 19 78 14 39 27 77 30 85 7 22 18 4 48 -77z"
       id="path46"
       style="fill:#004269;fill-opacity:1" />
    <path
       d="M8037 2668 c-9 -24 -47 -129 -86 -234 -39 -105 -71 -196 -71 -203 0 -6 18 -11 44 -11 43 0 43 0 63 53 l20 52 98 0 97 0 20 -52 19 -53 50 0 c27 0 49 2 49 4 0 2 -29 78 -63 168 -35 89 -76 198 -92 241 l-28 77 -52 0 -52 0 -16 -42z m103 -165 c16 -45 26 -83 23 -87 -10 -9 -111 -7 -117 2 -4 8 8 48 49 161 8 20 12 13 45 -76z"
       id="path48"
       style="fill:#004269;fill-opacity:1" />
    <path
       d="M8410 2465 l0 -245 50 0 50 0 0 75 c0 74 1 77 38 117 l38 41 49 -84 c95 -165 80 -149 141 -149 30 0 54 3 54 7 0 3 -38 68 -85 144 -47 75 -85 143 -85 149 0 7 37 51 82 99 l82 86 -60 3 -59 3 -65 -73 c-36 -40 -80 -88 -97 -108 l-32 -35 -1 108 0 107 -50 0 -50 0 0 -245z"
       id="path50"
       style="fill:#004269;fill-opacity:1" />
    <path
       d="M8910 2465 l0 -245 180 0 180 0 0 40 0 40 -135 0 -135 0 0 70 0 70 120 0 120 0 0 40 0 40 -120 0 -120 0 0 55 0 54 128 3 127 3 3 38 3 37 -175 0 -176 0 0 -245z"
       id="path52"
       style="fill:#004269;fill-opacity:1" />
    <path
       d="M9360 2465 l0 -245 50 0 50 0 0 106 0 107 36 -6 c48 -8 63 -23 126 -123 l53 -84 52 0 c29 0 53 2 53 5 0 16 -105 171 -127 188 l-26 21 41 17 c22 10 48 29 57 42 40 62 24 155 -34 194 -32 21 -44 23 -182 23 l-149 0 0 -245z m275 149 c10 -11 15 -29 13 -53 -4 -46 -32 -61 -120 -61 l-68 0 0 65 0 65 79 0 c60 0 84 -4 96 -16z"
       id="path54"
       style="fill:#004269;fill-opacity:1" />
    <path
       d="M10030 2531 c0 -99 -4 -191 -10 -205 -21 -55 -94 -41 -106 20 -6 35 -7 35 -48 29 -22 -4 -42 -8 -44 -10 -1 -1 2 -22 7 -46 31 -137 243 -146 281 -11 5 20 10 119 10 220 l0 182 -45 0 -45 0 0 -179z"
       id="path56"
       style="fill:#004269;fill-opacity:1" />
    <path
       d="M10326 2618 c-19 -51 -54 -145 -77 -208 -22 -63 -47 -132 -55 -152 l-13 -38 49 0 49 0 17 55 18 55 97 0 98 0 19 -52 20 -53 51 -3 51 -3 -30 78 c-16 43 -57 153 -92 245 l-63 168 -51 0 -52 0 -36 -92z m144 -195 c0 -18 -109 -18 -116 0 -4 11 12 62 52 167 6 14 64 -139 64 -167z"
       id="path58"
       style="fill:#004269;fill-opacity:1" />
    <path
       d="M10821 2618 c-18 -51 -57 -157 -87 -234 -30 -78 -54 -147 -54 -153 0 -8 16 -11 47 -9 l47 3 19 55 18 55 98 -3 98 -3 17 -55 17 -54 50 0 c27 0 49 2 49 4 0 2 -36 100 -81 217 -44 118 -85 226 -91 242 -9 25 -14 27 -62 27 l-52 0 -33 -92z m121 -115 c15 -41 25 -80 22 -84 -6 -10 -107 -12 -116 -3 -5 4 18 85 47 163 8 21 17 7 47 -76z"
       id="path60"
       style="fill:#004269;fill-opacity:1" />
    <path
       d="M11212 2468 l3 -243 43 -3 42 -3 0 155 c0 86 3 156 8 156 4 0 47 -70 96 -155 l89 -155 59 0 58 0 0 245 0 245 -55 0 -55 0 0 -157 c-1 -185 8 -187 -112 20 l-80 137 -49 0 -49 0 2 -242z"
       id="path62"
       style="fill:#004269;fill-opacity:1" />
    <path
       d="M2574 2348 c-100 -101 -189 -194 -198 -208 -25 -38 -20 -91 13 -136 16 -21 215 -224 442 -451 325 -324 424 -416 462 -433 117 -52 224 -33 318 57 78 74 102 126 103 217 0 128 7 119 -496 622 -348 350 -451 459 -457 483 l-6 31 -181 -182z"
       id="path64"
       style="fill:#004269;fill-opacity:1" />
    <path
       d="M3663 2391 c-217 -103 -262 -379 -88 -540 70 -64 124 -86 220 -86 66 0 90 5 137 27 162 76 237 270 166 429 -34 75 -85 129 -155 165 -48 24 -72 29 -138 31 -71 2 -88 -1 -142 -26z"
       id="path66"
       style="fill:#004269;fill-opacity:1" />
    <path
       d="M663 2390 c-125 -26 -220 -121 -253 -252 -7 -27 -16 -48 -21 -48 -5 0 -9 -11 -9 -25 0 -14 4 -25 9 -25 5 0 14 -21 20 -47 24 -94 90 -175 183 -225 36 -19 58 -23 138 -23 108 0 148 15 226 87 166 153 124 428 -79 527 -68 34 -147 45 -214 31z"
       id="path68"
       style="fill:#004269;fill-opacity:1" />
    <path
       d="M2195 1961 c-16 -10 -218 -208 -447 -438 -344 -346 -422 -430 -443 -474 -113 -242 161 -516 399 -398 26 14 204 184 497 476 351 350 462 455 482 456 l26 2 -27 29 c-38 40 -50 52 -219 219 -147 144 -151 147 -194 147 -26 0 -57 -8 -74 -19z"
       id="path70"
       style="fill:#004269;fill-opacity:1" />
    <path
       d="M1255 1946 c-39 -18 -385 -369 -415 -421 -16 -28 -24 -62 -28 -111 -4 -62 -1 -80 21 -127 30 -66 104 -141 167 -171 32 -14 65 -21 115 -21 106 0 136 20 355 239 265 264 265 257 53 468 -162 161 -193 178 -268 144z"
       id="path72"
       style="fill:#004269;fill-opacity:1" />
    <path
       d="M4600 1705 l0 -245 50 0 50 0 0 106 0 106 38 -7 c49 -9 52 -12 119 -116 l57 -89 54 0 53 0 -33 61 c-18 34 -52 82 -74 108 l-41 45 38 18 c55 24 81 70 76 131 -5 58 -32 98 -78 114 -20 7 -92 12 -171 12 l-138 1 0 -245z m268 149 c27 -18 30 -69 5 -96 -13 -14 -31 -18 -95 -18 l-78 0 0 65 0 65 73 0 c49 0 80 -5 95 -16z"
       id="path74"
       style="fill:#004269;fill-opacity:1" />
    <path
       d="M5100 1705 l0 -245 181 0 180 0 -3 38 -3 37 -133 3 -133 3 3 67 3 67 118 3 117 3 0 34 0 35 -104 0 c-57 0 -111 3 -120 6 -12 5 -16 20 -16 60 l0 54 130 0 130 0 0 40 0 40 -175 0 -175 0 0 -245z"
       id="path76"
       style="fill:#004269;fill-opacity:1" />
    <path
       d="M5550 1705 l0 -245 50 0 49 0 3 93 3 92 86 5 c91 6 125 20 155 65 23 35 21 125 -3 167 -32 56 -70 68 -215 68 l-128 0 0 -245z m244 144 c32 -25 35 -70 6 -99 -16 -16 -33 -20 -85 -20 l-65 0 0 70 0 70 59 0 c44 0 65 -5 85 -21z"
       id="path78"
       style="fill:#004269;fill-opacity:1" />
    <path
       d="M6002 1753 c4 -231 10 -252 85 -285 35 -15 61 -19 112 -16 76 4 115 21 145 61 19 26 21 44 24 233 l3 204 -45 0 -46 0 0 -175 c0 -198 -8 -228 -60 -240 -41 -9 -84 2 -106 27 -17 18 -19 42 -22 204 l-4 184 -45 0 -45 0 4 -197z"
       id="path80"
       style="fill:#004269;fill-opacity:1" />
    <path
       d="M6490 1705 l0 -245 145 0 c196 0 235 18 251 118 6 37 -17 111 -35 112 -3 0 -14 7 -25 15 -18 14 -18 15 8 45 34 41 38 102 9 146 -28 43 -70 54 -217 54 l-136 0 0 -245z m262 153 c27 -21 30 -53 9 -79 -16 -20 -30 -24 -95 -27 l-76 -4 0 61 0 61 73 0 c43 0 80 -5 89 -12z m20 -205 c22 -20 23 -70 1 -95 -13 -15 -31 -18 -100 -18 l-83 0 0 65 0 65 82 0 c62 0 86 -4 100 -17z"
       id="path82"
       style="fill:#004269;fill-opacity:1" />
    <path
       d="M6990 1705 l0 -245 165 0 165 0 0 40 0 40 -120 0 -120 0 0 205 0 205 -45 0 -45 0 0 -245z"
       id="path84"
       style="fill:#004269;fill-opacity:1" />
    <path
       d="M7400 1705 l0 -245 50 0 50 0 0 245 0 245 -50 0 -50 0 0 -245z"
       id="path86"
       style="fill:#004269;fill-opacity:1" />
    <path
       d="M7600 1705 l0 -245 45 0 45 0 0 73 c0 72 1 74 40 112 22 21 42 36 46 33 3 -4 31 -53 63 -110 l57 -103 63 -3 62 -3 -52 83 c-29 46 -70 111 -91 145 -22 35 -38 67 -36 72 1 6 40 51 86 100 l83 91 -63 0 c-71 0 -60 9 -184 -142 -31 -38 -60 -68 -65 -68 -5 0 -9 47 -9 105 l0 105 -45 0 -45 0 0 -245z"
       id="path88"
       style="fill:#004269;fill-opacity:1" />
    <path
       d="M2547 1341 c-147 -145 -150 -149 -154 -197 -3 -27 -1 -59 4 -71 4 -13 91 -106 193 -209 216 -217 247 -238 355 -237 89 1 131 19 201 85 82 77 99 115 99 218 0 64 -5 94 -19 120 -19 36 -360 391 -406 422 -15 11 -44 18 -74 18 l-50 0 -149 -149z"
       id="path90"
       style="fill:#004269;fill-opacity:1" />
    <path
       d="M5911 1186 c-96 -32 -143 -111 -144 -245 -2 -168 71 -251 223 -251 116 0 185 51 216 158 27 92 12 200 -39 275 -41 60 -167 91 -256 63z m152 -88 c47 -25 71 -151 47 -240 -21 -76 -107 -111 -180 -73 -56 29 -83 128 -61 223 23 94 110 135 194 90z"
       id="path92"
       style="fill:#004269;fill-opacity:1" />
    <path
       d="M7348 1189 c-21 -6 -51 -26 -68 -45 -41 -47 -43 -117 -4 -163 33 -40 50 -48 138 -73 39 -11 79 -27 89 -35 44 -41 0 -103 -74 -103 -53 0 -81 18 -99 61 -12 29 -16 31 -52 26 -22 -3 -42 -8 -45 -11 -10 -10 26 -92 50 -114 33 -31 71 -42 142 -42 127 0 185 48 185 154 0 51 -3 59 -38 94 -27 27 -55 42 -102 55 -103 29 -130 45 -130 77 0 64 130 67 159 4 9 -20 18 -24 57 -24 l47 0 -7 32 c-9 44 -31 75 -66 93 -38 20 -135 27 -182 14z"
       id="path94"
       style="fill:#004269;fill-opacity:1" />
    <path
       d="M4602 943 l3 -248 45 0 45 0 0 245 0 245 -48 3 -47 3 2 -248z"
       id="path96"
       style="fill:#004269;fill-opacity:1" />
    <path
       d="M4802 943 l3 -248 35 0 35 0 3 153 c1 83 6 152 11 152 4 0 50 -70 100 -156 l92 -155 42 3 42 3 3 248 2 247 -40 0 -40 0 0 -160 c0 -88 -4 -160 -8 -160 -4 0 -50 72 -101 160 l-93 160 -44 0 -44 0 2 -247z"
       id="path98"
       style="fill:#004269;fill-opacity:1" />
    <path
       d="M5292 943 l3 -248 105 0 c132 0 172 9 214 46 49 43 69 98 69 199 0 96 -20 156 -69 202 -40 36 -91 48 -217 48 l-107 0 2 -247z m241 151 c45 -17 70 -140 47 -233 -16 -67 -37 -81 -122 -81 l-68 0 0 166 0 167 63 -6 c34 -3 70 -9 80 -13z"
       id="path100"
       style="fill:#004269;fill-opacity:1" />
    <path
       d="M6307 1183 c-4 -3 -7 -113 -7 -244 l0 -239 24 -6 c60 -15 61 -13 64 154 1 83 6 152 10 152 4 0 34 -46 67 -102 32 -57 74 -127 92 -156 33 -52 34 -53 76 -50 l42 3 3 248 2 248 -42 -3 -43 -3 -5 -160 -5 -160 -44 75 c-24 41 -55 95 -69 120 -63 112 -80 130 -121 130 -21 0 -41 -3 -44 -7z"
       id="path102"
       style="fill:#004269;fill-opacity:1" />
    <path
       d="M6802 943 l3 -248 175 0 175 0 0 40 0 40 -132 3 -133 3 0 64 0 65 120 0 120 0 0 40 0 39 -117 3 -118 3 0 55 0 55 128 3 127 3 0 39 0 40 -175 0 -175 0 2 -247z"
       id="path104"
       style="fill:#004269;fill-opacity:1" />
    <path
       d="M7702 943 l3 -248 40 0 40 0 3 248 2 247 -45 0 -45 0 2 -247z"
       id="path106"
       style="fill:#004269;fill-opacity:1" />
    <path
       d="M8022 1173 c-5 -10 -33 -83 -62 -163 -29 -80 -65 -178 -81 -218 -38 -96 -38 -102 9 -102 50 0 56 6 76 68 l18 53 96 -3 95 -3 16 -47 c9 -26 21 -52 27 -58 17 -17 89 -9 87 10 -2 17 -158 432 -173 461 -14 26 -95 27 -108 2z m91 -201 c15 -40 27 -75 27 -78 0 -2 -29 -4 -65 -4 -36 0 -65 2 -65 5 0 4 8 26 52 144 11 32 19 21 51 -67z"
       id="path108"
       style="fill:#004269;fill-opacity:1" />
    <path
       d="M2145 857 c-58 -23 -91 -46 -134 -92 -64 -70 -85 -124 -85 -220 0 -96 21 -150 85 -220 160 -173 428 -133 537 80 36 72 42 179 13 256 -30 78 -91 145 -166 180 -51 25 -72 29 -140 28 -44 0 -93 -6 -110 -12z"
       id="path110"
       style="fill:#004269;fill-opacity:1" />
  </g>
</svg>
