<svg xmlns="http://www.w3.org/2000/svg" viewBox="0 0 420 420"><defs><style>.cls-1{fill:none;}.cls-2{fill:#8bd0db;}.cls-3{fill:#14a2b9;}</style></defs><g id="Layer_2" data-name="Layer 2"><g id="Layer_1-2" data-name="Layer 1"><rect class="cls-1" width="420" height="420"/><path class="cls-2" d="M380.63,150.94v210a13,13,0,0,1-7.55,11.81,12.78,12.78,0,0,1-13.78-1.64l-61.36-49.55H144.38a26.25,26.25,0,0,1-26.25-26.25V245.88l3.79-3.07h22.46v52.5H302.53a12.64,12.64,0,0,1,8.21,3l43.64,35.1V150.94h-52.5V124.69h52.5A26.25,26.25,0,0,1,380.63,150.94Z"/><path class="cls-3" d="M301.88,72.19V216.56a26.25,26.25,0,0,1-26.25,26.25H121.92l-3.79,3.07L96.71,263.25l-36,29.11A12.79,12.79,0,0,1,46.93,294a12.94,12.94,0,0,1-7.55-11.81v-210A26.25,26.25,0,0,1,65.63,45.94h210A26.25,26.25,0,0,1,301.88,72.19Z"/><circle class="cls-2" cx="114.61" cy="144.38" r="16"/><circle class="cls-2" cx="170.63" cy="144.38" r="16"/><circle class="cls-2" cx="226.64" cy="144.38" r="16"/></g></g></svg>