<svg xmlns="http://www.w3.org/2000/svg" xmlns:xlink="http://www.w3.org/1999/xlink" viewBox="0 0 324.75 367.61"><defs><style>.cls-1{fill:none;}.cls-2{clip-path:url(#clip-path);}.cls-3{fill:#8bd0db;}.cls-4{fill:#14a2b9;}</style><clipPath id="clip-path" transform="translate(-42.4 -26.19)"><rect class="cls-1" width="420" height="420"/></clipPath></defs><g id="Layer_2" data-name="Layer 2"><g id="Layer_1-2" data-name="Layer 1"><g class="cls-2"><rect class="cls-3" x="250.64" y="30.99" width="15" height="117.03" transform="translate(-4.34 225.22) rotate(-55.46)"/><rect class="cls-3" x="97.67" y="91.04" width="128.14" height="15" transform="translate(-67.26 104.74) rotate(-41.2)"/><polygon class="cls-3" points="324.75 53.21 268.88 102.13 259 90.84 315.15 41.68 324.75 53.21"/><polygon class="cls-3" points="76.07 120.19 9.61 178.38 0 166.85 66.19 108.91 76.07 120.19"/><rect class="cls-4" x="47.03" y="223" width="48.2" height="114.48"/><rect class="cls-4" x="143.43" y="138.64" width="48.2" height="198.84"/><rect class="cls-4" x="239.84" y="180.82" width="48.2" height="156.66"/><rect class="cls-3" x="34.97" y="355.56" width="265.12" height="12.05"/><circle class="cls-4" cx="263.94" cy="96.49" r="30.14"/><circle class="cls-4" cx="167.54" cy="30.14" r="30.14"/><circle class="cls-4" cx="71.13" cy="114.54" r="30.13"/></g></g></g></svg>