<svg xmlns="http://www.w3.org/2000/svg" viewBox="0 0 420 420"><defs><style>.cls-1{fill:none;}.cls-2{fill:#14a2b9;}.cls-2,.cls-3{fill-rule:evenodd;}.cls-3{fill:#8bd0db;}</style></defs><g id="Layer_2" data-name="Layer 2"><g id="Layer_1-2" data-name="Layer 1"><rect class="cls-1" width="420" height="420"/><path class="cls-2" d="M209.78,70.62c8.71,84.85-38.19,122.75-55.71,133.8a5.15,5.15,0,0,0-2.36,4.4V316.91a33,33,0,0,0,17.07,28.87h0a33,33,0,0,0,15.88,4.08s120.85,0,121.1.06h0c29.65,4.06,30.82-31,30.82-35.37a5.35,5.35,0,0,1,3.2-5.36h0c18.58-8,10.7-33.09,10-35.25a5.33,5.33,0,0,1,2.65-6.64h0c24.12-11.69,8.92-32.73,6.95-35.38a5.36,5.36,0,0,1-.55-6.46h0c43.68-67-92.78-50.44-101.51-49.34a4.87,4.87,0,0,1-2.15,0,5.27,5.27,0,0,1-4.19-6.21h0c20.37-103.17-26.58-102.06-41.28-99.42Z"/><path class="cls-3" d="M143,337.92V208.85a10.82,10.82,0,0,0-3.26-7.81,11,11,0,0,0-7.81-3.26H63.61A10.82,10.82,0,0,0,55.8,201a11,11,0,0,0-3.26,7.81V337.92a10.83,10.83,0,0,0,3.26,7.82A11,11,0,0,0,63.61,349H131.9a10.8,10.8,0,0,0,7.81-3.26,11.17,11.17,0,0,0,3.14-6.22,3.88,3.88,0,0,1,.12-1.17Z"/></g></g></svg>