<svg xmlns="http://www.w3.org/2000/svg" xmlns:xlink="http://www.w3.org/1999/xlink" viewBox="0 0 320 320"><defs><style>.cls-1{fill:none;}.cls-2{clip-path:url(#clip-path);}.cls-3{fill:#14a2b9;}</style><clipPath id="clip-path" transform="translate(-50 -50)"><rect class="cls-1" width="420" height="420"/></clipPath></defs><g id="Layer_2" data-name="Layer 2"><g id="Layer_1-2" data-name="Layer 1"><g class="cls-2"><path class="cls-3" d="M210,50C121.82,50,50,121.82,50,210s71.82,160,160,160h16V338H210A128,128,0,1,1,338,210v56a24,24,0,0,1-48,0V210a80,80,0,1,0-80,80,79.15,79.15,0,0,0,48.72-17.06C262.21,300.41,285.64,322,314,322a56.24,56.24,0,0,0,56-56V210C370,121.82,298.18,50,210,50Zm0,112a48,48,0,1,1-48,48A47.76,47.76,0,0,1,210,162Z" transform="translate(-50 -50)"/></g></g></g></svg>