<svg xmlns="http://www.w3.org/2000/svg" viewBox="0 0 420 420"><defs><style>.cls-1{fill:none;}.cls-2{fill:#14a2b9;}</style></defs><g id="Layer_2" data-name="Layer 2"><g id="Layer_1-2" data-name="Layer 1"><rect class="cls-1" width="420" height="420"/><path class="cls-2" d="M210,39.38A170.62,170.62,0,1,0,380.62,210,170.62,170.62,0,0,0,210,39.38ZM269.06,157.5a19.69,19.69,0,1,1-19.68,19.69A19.68,19.68,0,0,1,269.06,157.5Zm-118.12,0a19.69,19.69,0,1,1-19.69,19.69A19.68,19.68,0,0,1,150.94,157.5ZM284.81,300.07a13,13,0,0,1-17.88-4.76,65.8,65.8,0,0,0-113.86,0A13.13,13.13,0,0,1,129.4,284a13,13,0,0,1,1-1.77,91.87,91.87,0,0,1,159.14,0A13.12,13.12,0,0,1,284.81,300.07Z"/></g></g></svg>