<svg xmlns="http://www.w3.org/2000/svg" viewBox="0 0 420 420"><defs><style>.cls-1{fill:none;}.cls-2{fill:#8bd0db;}.cls-3{fill:#14a2b9;}</style></defs><g id="Layer_2" data-name="Layer 2"><g id="Layer_1-2" data-name="Layer 1"><rect class="cls-1" width="420" height="420"/><path class="cls-2" d="M105,229.69a13,13,0,0,1-12.79,13.12H19.69a13.43,13.43,0,0,1-11.81-7.22,13.43,13.43,0,0,1,1.31-13.78,111.24,111.24,0,0,1,45-35.6,65.62,65.62,0,1,1,108.77-60.7,13.29,13.29,0,0,1-6.23,13.78,105.46,105.46,0,0,0-45.61,55.45A101.07,101.07,0,0,0,105,229.69Z"/><path class="cls-2" d="M410.81,221.81a111.24,111.24,0,0,0-44.95-35.6,65.62,65.62,0,1,0-108.77-60.7,13.29,13.29,0,0,0,6.23,13.78,105,105,0,0,1,45.61,55.45A101.07,101.07,0,0,1,315,229.69a13,13,0,0,0,12.79,13.12h72.52a13.12,13.12,0,0,0,10.5-21Z"/><path class="cls-3" d="M257.91,292.2a78.72,78.72,0,1,0-95.82,0,118.3,118.3,0,0,0-58.4,56.43A13.31,13.31,0,0,0,115.5,367.5h189a13.31,13.31,0,0,0,11.81-18.87A118.3,118.3,0,0,0,257.91,292.2Z"/></g></g></svg>