<svg xmlns="http://www.w3.org/2000/svg" viewBox="0 0 420 420"><defs><style>.cls-1{fill:#54b9ce;}.cls-2{fill:none;}.cls-3{fill:#8bd0db;}.cls-4{fill:#14a2b9;}</style></defs><g id="Layer_2" data-name="Layer 2"><g id="Layer_1-2" data-name="Layer 1"><path class="cls-1" d="M354,98.47c-.05.51-.09,1-.16,1.53-.12,1-.26,1.94-.43,2.9,0,.06,0,.13,0,.2-.05.34-.11.68-.19,1s-.12.66-.19,1c-.1.49-.21,1-.32,1.47s-.25,1.05-.38,1.58a65.62,65.62,0,0,1-47.16,47.16c-1.05.28-2.11.53-3.18.73l-1.6.31a65.69,65.69,0,0,1-23.23,0l-1.61-.31-1.6-.35-1.58-.38a61.74,61.74,0,0,1-6.16-1.92A65.75,65.75,0,0,1,224.46,105c-.11-.53-.21-1.07-.3-1.6s-.19-1.08-.27-1.63-.15-1-.21-1.47c-.15-1.17-.27-2.35-.36-3.53-.13-1.62-.19-3.24-.2-4.87s.06-3.38.19-5.05a1,1,0,0,0,0-.17c.05-.54.09-1.07.15-1.61s.14-1.32.24-2c0-.44.11-.87.18-1.3.15-1,.33-2,.54-3.05.11-.53.22-1.06.34-1.59a66.27,66.27,0,0,1,5.54-15.23h0c.42-.81.86-1.61,1.3-2.41A65.78,65.78,0,0,1,242,45.73l.75-.75.31-.3c.31-.31.63-.61,1-.91q.72-.68,1.47-1.32c.36-.33.73-.65,1.1-1l.81-.67c.26-.23.53-.44.8-.64.53-.42,1.06-.83,1.6-1.23l.92-.67c.5-.35,1-.7,1.51-1s.78-.52,1.18-.78l1.34-.84,1.36-.8c.46-.26.92-.52,1.39-.77l1.16-.62c.39-.21.79-.4,1.19-.6,1-.5,2.06-1,3.11-1.43l1.26-.52c.72-.29,1.45-.57,2.18-.84l1.33-.46c.42-.15.84-.28,1.27-.41s.9-.28,1.35-.41c1-.3,2-.56,3-.81l1.52-.34c1-.21,1.94-.4,2.92-.56q.89-.16,1.77-.27c.48-.08,1-.14,1.45-.19s.89-.11,1.34-.15l1.5-.13c.51,0,1-.07,1.52-.09l1.2-.05c.72,0,1.45,0,2.18,0a66.66,66.66,0,0,1,8.53.55c.48.06,1,.13,1.43.21h0c1.39.21,2.78.47,4.16.77a2.1,2.1,0,0,1,.24.06l1.46.34,1.23.32c1,.26,1.93.54,2.87.84l1.07.35.06,0c.46.15.9.31,1.35.47l.36.14,1.17.44,1.22.5c.34.13.67.27,1,.43l1,.43c.43.19.85.39,1.28.6l1.42.7c.47.25.94.49,1.41.75l1.38.77c.91.51,1.82,1.06,2.71,1.64l1.32.87c.87.59,1.73,1.2,2.57,1.83l1.25,1q.62.48,1.23,1l1.2,1,1.18,1c.37.33.73.67,1.09,1s.89.86,1.31,1.29c.14.12.27.26.41.4s.39.4.57.6c.36.38.72.76,1.07,1.15s.69.77,1,1.16l1.26,1.5.76,1c.38.5.76,1,1.14,1.5l.75,1c.3.42.6.86.9,1.29q1.33,2,2.51,4c.26.46.52.92.77,1.38.47.86.91,1.72,1.34,2.6.27.56.53,1.11.79,1.68.44,1,.86,2,1.24,2.94q.3.75.57,1.5c.37,1,.72,2,1,3s.52,1.74.76,2.63l.27,1c.07.29.14.57.2.86s.19.82.28,1.24.19.92.28,1.39.14.71.2,1.07.14.85.2,1.28.15,1,.21,1.52a.75.75,0,0,1,0,.2q.11.78.18,1.56c.18,1.67.28,3.34.32,5,0,.56,0,1.12,0,1.69,0,.21,0,.42,0,.63,0,.58,0,1.16,0,1.75,0,.39,0,.79-.05,1.19,0,.59-.07,1.18-.11,1.77S354.06,98,354,98.47Z"/><rect class="cls-2" width="420" height="420"/><path class="cls-3" d="M288.75,262.5a65.12,65.12,0,0,0-46.92,19.85L166.2,233.79a66.16,66.16,0,0,0,0-47.58l75.63-48.56a65.61,65.61,0,1,0-18.71-45.77,67.33,67.33,0,0,0,4.43,23.78l-75.63,48.57a65.62,65.62,0,1,0-1.25,92.8c.42-.42.84-.83,1.25-1.26l75.63,48.57a67.33,67.33,0,0,0-4.43,23.78,65.63,65.63,0,1,0,65.63-65.62Z"/><path class="cls-4" d="M170.6,209.94a65.41,65.41,0,0,1-18.66,45.84c-.34.35-.72.69-1.07,1l-.05,0c0,.05-.1.11-.16.16l-.1.09c-.84.82-1.71,1.62-2.6,2.39l-.16.14c-.44.37-.87.75-1.32,1.11s-.78.64-1.17.94l-.17.13-.26.2-.25.19-1.2.9c-.41.3-.81.6-1.23.88-1,.71-2.06,1.39-3.11,2-.45.29-.91.56-1.38.82l-1.38.78-.1.06c-1.81,1-3.69,1.89-5.6,2.7-1,.41-1.93.8-2.92,1.16l-1,.37c-1.3.46-2.62.88-4,1.25l-1.37.37q-.73.2-1.47.36c-.68.16-1.35.31-2,.44-.42.09-.85.17-1.28.24-1,.19-2.11.35-3.18.49l-1.86.21-.29,0c-.46.05-.91.09-1.37.11l-.49,0-1.41.08h-.1c-.48,0-1,0-1.44.05l-1.48,0h-.71c-.5,0-1,0-1.49,0l-2.15-.11c-.77,0-1.54-.11-2.3-.18l-1.38-.16-.3,0-1-.13-.14,0L94,274.69l-1.56-.28-1.22-.25q-2.75-.57-5.4-1.38c-.8-.24-1.6-.5-2.39-.78-.4-.13-.79-.28-1.19-.42l-1.17-.44-1.16-.47c-.77-.32-1.53-.65-2.29-1l-1.13-.53a65,65,0,0,1-18.65-13.38A64.3,64.3,0,0,1,47.63,242c-.69-1.22-1.33-2.46-1.93-3.72-.22-.46-.44-.92-.64-1.38s-.48-1.09-.71-1.64c-.38-.91-.74-1.82-1.08-2.74-.18-.51-.36-1-.53-1.52s-.34-1-.5-1.53-.31-1-.46-1.55-.29-1-.42-1.57-.23-.89-.33-1.33c-.14-.6-.28-1.21-.4-1.82a64.2,64.2,0,0,1-1.14-8.15c0-.47-.07-.94-.09-1.41,0-.21,0-.41,0-.62,0-.88-.06-1.76-.07-2.64,0-.15,0-.29,0-.44s0-.43,0-.64c0-.51,0-1,0-1.53s0-.85.05-1.28.06-1.07.1-1.6c.07-1.11.19-2.21.34-3.31.07-.55.14-1.09.23-1.64.15-1,.34-2.06.54-3.08.15-.72.3-1.43.48-2.14.08-.35.16-.69.25-1s.23-.88.35-1.31.26-.91.4-1.37.29-.94.44-1.41a1.72,1.72,0,0,1,.07-.21c.16-.49.33-1,.5-1.45s.37-1,.56-1.52.39-1,.6-1.51.39-.92.59-1.38a.77.77,0,0,1,.07-.16q.32-.72.66-1.44c.47-1,1-2,1.47-2.92s1-1.79,1.51-2.67c.32-.54.65-1.08,1-1.6.67-1,1.37-2.09,2.11-3.1.33-.46.68-.93,1-1.39l.11-.15q.7-.92,1.44-1.8l.09-.11.42-.5c.33-.4.68-.8,1-1.2a.6.6,0,0,1,.11-.12c.49-.57,1-1.13,1.54-1.68s1.12-1.15,1.7-1.71l.1-.09a65.68,65.68,0,0,1,107.4,24.49c.18.5.36,1,.53,1.51l.36,1.11q.31,1,.6,2c.11.39.22.79.32,1.19.33,1.22.62,2.46.87,3.71.1.48.19,1,.27,1.45a60.82,60.82,0,0,1,.84,6.57C170.54,206.56,170.6,208.24,170.6,209.94Z"/><path class="cls-4" d="M354.35,93.17c0,.47,0,1-.05,1.42s0,.94-.07,1.4c-.06.93-.13,1.86-.24,2.79-.05.47-.1.93-.16,1.39s-.12.91-.19,1.37-.14.91-.22,1.36c0,.06,0,.13,0,.2s0,.07,0,.11a6.75,6.75,0,0,1-.14.76l0,.15c-.06.33-.12.66-.19,1-.1.49-.21,1-.32,1.47s-.25,1.05-.38,1.58c-.18.7-.37,1.4-.57,2.09l0,.1q-.87,3-2,5.87a65.65,65.65,0,0,1-38.43,37.21c-.6.22-1.21.43-1.82.63s-1.41.46-2.12.67-1.43.4-2.15.59c-1.05.28-2.11.53-3.18.73l-1.6.31-1.42.24a65,65,0,0,1-15.32.59l-1.26-.11c-1.26-.12-2.51-.28-3.74-.47l-.19,0-1.3-.22-1.61-.31-1.6-.35-1.58-.38-1.44-.39-.26-.07-1.41-.42-1.53-.5-1.52-.54c-.66-.24-1.31-.49-2-.75-1.29-.51-2.57-1.07-3.84-1.69a65.76,65.76,0,0,1-35.92-46c-.11-.53-.21-1.07-.3-1.6s-.19-1.08-.27-1.63-.13-.87-.19-1.31c0-.05,0-.11,0-.16a1.36,1.36,0,0,1,0-.2q-.1-.78-.18-1.56c-.06-.59-.12-1.18-.16-1.77,0-.41-.06-.83-.08-1.24-.05-.83-.08-1.66-.1-2.49,0-.38,0-.76,0-1.14s0-.46,0-.68,0-.46,0-.68c0-.83.05-1.65.09-2.47,0-.4.05-.81.08-1.22a1,1,0,0,0,0-.17l.09-1,.06-.6c0-.37.08-.74.13-1.11s.07-.58.11-.87c0-.44.11-.87.18-1.3s.15-1,.24-1.44.19-1.07.3-1.61.22-1.06.34-1.59.25-1.06.39-1.58.26-1,.4-1.48a.42.42,0,0,1,0-.16c.14-.5.29-1,.44-1.49a58.34,58.34,0,0,1,2.22-6.1c.21-.5.42-1,.65-1.49s.42-.93.64-1.39.5-1,.76-1.54h0c.42-.81.86-1.61,1.3-2.41a1.4,1.4,0,0,1,.1-.16c.31-.57.64-1.12,1-1.68l0,0c.37-.6.74-1.19,1.13-1.78a.44.44,0,0,1,.08-.11c.28-.45.58-.89.89-1.32.16-.24.32-.47.49-.7.83-1.17,1.7-2.31,2.6-3.41.3-.37.61-.74.92-1.1.13-.15.26-.31.4-.46.28-.33.57-.66.87-1s.48-.54.73-.8.77-.81,1.16-1.21l.75-.75.31-.3c.31-.31.63-.61,1-.91l.15-.14c.43-.4.87-.79,1.32-1.18l.24-.21c.28-.26.57-.5.86-.74l.81-.67c.26-.23.53-.44.8-.64.46-.36.91-.72,1.38-1.06l.22-.17.92-.67.11-.08,1.4-1c.39-.27.78-.52,1.18-.78l1.34-.84,1.36-.8c.46-.26.92-.52,1.39-.77l1.16-.62c.39-.21.79-.4,1.19-.6,1-.5,2.06-1,3.11-1.43l1.26-.52.19-.08,1.85-.71.14-.05.31-.11,1-.35.7-.23.57-.18c.45-.15.9-.28,1.35-.41,1-.3,2-.56,3-.81l1.52-.34c.51-.11,1-.22,1.53-.31l1.39-.25.44-.08,1-.15.32,0,.12,0c.44-.07.88-.12,1.33-.17s.89-.11,1.34-.15l1.5-.13c.51,0,1-.07,1.52-.09l1.17-.05h0c.72,0,1.45,0,2.18,0s1.4,0,2.1,0H291c.59,0,1.17,0,1.75.08l.36,0q.75,0,1.5.12t1.26.12l1.15.13.22,0,.27,0,1.16.17h0l1.3.22c.47.07,1,.16,1.42.26l1.44.29a2.1,2.1,0,0,1,.24.06l1.46.34,1.23.32.89.25,1,.28,1,.31,1.07.35.06,0c.46.15.9.31,1.35.47l.36.14,1.09.41.08,0,.2.08,1,.42.23.09.57.25.21.09,1,.43c.43.19.85.39,1.28.6l1.42.7c.47.25.94.49,1.41.75l1.38.77,1.37.8,1.34.84,1.32.87c.87.59,1.73,1.2,2.57,1.83l1.25,1q.62.48,1.23,1l1.2,1,1.18,1c.31.28.62.56.92.85l.17.16c.45.43.89.86,1.31,1.29.14.12.27.26.41.4l.09.1.48.5c.36.38.72.76,1.07,1.15l.87,1,.17.19,1.26,1.5.14.18c.21.25.41.51.62.77.38.5.76,1,1.14,1.5l.75,1c.3.42.6.86.9,1.29.44.65.87,1.32,1.29,2s.83,1.36,1.22,2c.26.46.52.92.77,1.38.47.86.91,1.72,1.34,2.6.27.56.53,1.11.79,1.68.44,1,.86,2,1.24,2.94q.3.75.57,1.5c.18.5.36,1,.53,1.51s.34,1,.5,1.54c.27.87.52,1.74.76,2.63l.27,1,0,.12c.06.25.12.49.17.74.1.41.19.82.28,1.24s.19.92.28,1.39.14.71.2,1.07a.88.88,0,0,1,0,.16c.07.38.13.74.18,1.12s.15,1,.21,1.52a.75.75,0,0,1,0,.2q.11.78.18,1.56l.12,1.25.09,1.25c0,.42,0,.84.07,1.26s0,.84,0,1.26C354.38,91.1,354.38,92.13,354.35,93.17Z"/><path class="cls-4" d="M354.37,328.07a65.94,65.94,0,0,1-.76,10c-.07.46-.14.92-.22,1.37-.24,1.37-.52,2.72-.84,4.06-.22.89-.45,1.77-.7,2.65s-.52,1.74-.8,2.6c0,0,0,0,0,0-.28.86-.59,1.71-.91,2.55l-.49,1.27a65.64,65.64,0,0,1-51.46,40.49c-.92.13-1.85.24-2.78.34a64.88,64.88,0,0,1-6.72.34,63.4,63.4,0,0,1-6.65-.34c-1.55-.16-3.09-.37-4.6-.63l-1.53-.28a65.68,65.68,0,1,1,77.21-77.21c.1.5.19,1,.28,1.52.26,1.51.47,3.05.63,4.6A63.73,63.73,0,0,1,354.37,328.07Z"/></g></g></svg>