<?xml version="1.0" encoding="utf-8"?>
<!-- Generator: Adobe Illustrator 21.1.0, SVG Export Plug-In . SVG Version: 6.00 Build 0)  -->
<svg version="1.1" xmlns="http://www.w3.org/2000/svg" xmlns:xlink="http://www.w3.org/1999/xlink" x="0px" y="0px"
	 viewBox="0 0 24 24" style="enable-background:new 0 0 24 24;" xml:space="preserve">
<style type="text/css">
	.st0{display:none;}
	.st1{display:inline;fill:#FFFFFF;}
	.st2{fill:#863691;}
	.st3{fill:#3896D2;}
</style>
<g id="Layer_2" class="st0">
	<rect y="0.5" class="st1" width="24" height="24"/>
</g>
<g id="Layer_1">
	<g>
		<path class="st2" d="M3.2,18.8c1.5,0.6,2.9,1,4.4,1.2c1.2,0.2,2.5,0.3,3.7,0c2.3-0.5,3.8-1.8,4.6-4c0.5-1.2,0.7-2.5,0.7-3.8
			c-0.1-1.8,1.4-3.3,3.2-3.3s3.3,1.4,3.3,3.3c-0.1,3.1-1.2,5.9-3.5,8C14.8,24.5,7.5,24,3.3,19C3.3,19,3.3,18.9,3.2,18.8z"/>
		<path class="st3" d="M14.4,16.8c-1,1.5-2.3,2.3-4.1,2.6c-1.8,0.3-3.5-0.1-5.2-0.6c-0.8-0.3-1.7-0.7-2.5-1
			c-0.1-0.1-0.3-0.2-0.3-0.3c-0.9-1.7-1.4-3.5-1.4-5.3c0-1.3,0.6-2.3,1.8-2.9C4,8.7,5.2,8.9,6.2,9.7c0.8,0.7,1.2,1.6,1.1,2.7
			c-0.1,2,0.7,3.4,2.3,4.4C11.2,17.7,12.8,17.7,14.4,16.8z"/>
		<path class="st2" d="M16.5,1.9c1.6,0,3,1.3,3,3s-1.3,3-3,3c-1.7,0-3-1.3-3-3C13.5,3.3,14.8,1.9,16.5,1.9z"/>
		<path class="st3" d="M7.3,7.9c-1.6,0-2.9-1.3-3-2.9C4.3,3.3,5.6,2,7.3,2s2.9,1.3,2.9,3C10.3,6.6,9,7.9,7.3,7.9z"/>
	</g>
</g>
</svg>
